<?xml version="1.0" encoding="UTF-8" standalone="no"?>
<svg
   version="1.1"
   width="1247.7698"
   height="1247.7698"
   id="svg245"
   xmlns="http://www.w3.org/2000/svg"
   xmlns:svg="http://www.w3.org/2000/svg">
  <defs
     id="defs249" />
  <rect
     style="font-variation-settings:'wght' 700;fill:#192b4e;fill-opacity:1;stroke-width:0.1;stroke-linecap:round;stroke-miterlimit:10"
     id="rect1538"
     width="1247.7698"
     height="1247.7698"
     x="0"
     y="0" />
  <g
     id="g1536"
     transform="translate(-298.06799,56.956207)">
    <g
       id="ViewLayer_LineSet">
      <g
         id="strokes">
        <path
           fill="none"
           stroke-width="3"
           stroke-linecap="butt"
           stroke-opacity="1"
           stroke="#000000"
           stroke-linejoin="miter"
           d="m 1330.587,162.03 -7.318,-6.815 -2.675,-2.491 -8.244,-5.659 -2.963,-2.034 -9.007,-4.345 -3.003,-1.449 -9.586,-2.848 -2.785,-0.828 -9.934,-1.142 -2.337,-0.269 -9.97,0.78 -1.744,0.136 -9.575,2.884 -1.136,0.342 -8.636,5.043 -0.66,0.386 -7.106,7.036 -0.409,0.405 -6.354,7.722 -6.354,7.721 -0.37,0.45 -5.096,8.603 -0.315,0.531 -2.843,9.587 -0.276,0.931 -0.599,9.982 -0.091,1.519 1.466,9.892 0.318,2.146 3.28,9.447 0.78,2.247 0.141,0.407 4.841,8.75 1.623,2.934 6.175,7.866 2.301,2.933 7.31,6.824 2.844,2.656 8.265,5.629 3.16,2.153 9.043,4.267 3.196,1.508 5.395,1.521 7.168,2.022 9.955,0.948 2.432,0.231 9.947,-1.033 1.777,-0.185 9.482,-3.176 1.122,-0.376 8.456,-5.338 0.623,-0.393 6.861,-7.276 6.861,-7.275 0.392,-0.416 6.85,-7.285 0.399,-0.424 4.788,-8.779 0.315,-0.578 2.527,-9.675 0.251,-0.961 0.318,-9.995 0.048,-1.509 -1.688,-9.856 -0.356,-2.078 -3.438,-9.391 -0.925,-2.526 -4.94,-8.695 -1.569,-2.763 -6.223,-7.828 -2.185,-2.748"
           id="path139" />
        <path
           fill="none"
           stroke-width="3"
           stroke-linecap="butt"
           stroke-opacity="1"
           stroke="#000000"
           stroke-linejoin="miter"
           d="m 1336.415,247.121 -8.463,5.328 -0.671,0.422 -9.489,3.156 -1.187,0.395 -9.949,1.009 -1.862,0.189 -9.953,-0.972 -2.534,-0.247 -7.229,-2.054 -5.442,-1.545 -9.038,-4.279 -3.312,-1.568 -8.261,-5.635 -3.274,-2.232 -7.31,-6.823 -2.947,-2.751 -6.182,-7.86 -2.389,-3.037 -4.855,-8.742 -1.69,-3.042 -0.143,-0.41 -3.301,-9.439 -0.821,-2.348 -1.491,-9.889 -0.337,-2.239 0.574,-9.983 0.092,-1.596 2.826,-9.593 0.292,-0.99 5.089,-8.608 0.341,-0.576"
           id="path141" />
        <path
           fill="none"
           stroke-width="3"
           stroke-linecap="butt"
           stroke-opacity="1"
           stroke="#000000"
           stroke-linejoin="miter"
           d="m 1011.799,509.904 -0.086,0.059"
           id="path143" />
        <path
           fill="none"
           stroke-width="3"
           stroke-linecap="butt"
           stroke-opacity="1"
           stroke="#000000"
           stroke-linejoin="miter"
           d="m 1217.045,221.94 -6.477,7.619 -6.476,7.62 -6.477,7.619 -6.476,7.619 -6.477,7.619 -6.477,7.62 -6.476,7.619 -6.477,7.619 -6.477,7.619 -6.476,7.62 -6.477,7.619 -6.476,7.619 -6.477,7.62 -6.477,7.619 -6.476,7.619 -6.477,7.619 -6.477,7.62 -6.476,7.619 -6.477,7.619 -6.476,7.62 -6.477,7.619 -6.477,7.619 -6.476,7.619 -6.477,7.62 -6.476,7.619 -6.477,7.619 -6.477,7.619 -6.476,7.62 -2.259,2.656 -2.619,4.369 -1.587,4.957 -2.771,9.608 -2.77,9.609 -2.771,9.608 -2.771,9.609 -2.77,9.608 -2.771,9.609 -1.352,4.688 -0.019,0.101 0.022,0.106 0.061,0.095 0.09,0.072 0.106,0.037 0.105,-0.004 0.093,-0.038 9.187,-3.951 9.186,-3.95 9.187,-3.951 9.186,-3.951 9.187,-3.951 9.186,-3.951 7.408,-3.186 4.304,-2.791 3.495,-3.668 6.744,-7.383 6.745,-7.384 6.744,-7.383 6.744,-7.384 6.745,-7.383 6.744,-7.383 6.744,-7.384 6.745,-7.383 6.744,-7.383 6.744,-7.384 6.745,-7.383 6.744,-7.383 6.744,-7.384 6.745,-7.383 6.744,-7.383 6.744,-7.384 6.745,-7.383 6.744,-7.384 6.744,-7.383 6.745,-7.383 6.744,-7.384 6.744,-7.383 6.745,-7.383 6.744,-7.384 6.744,-7.383 6.745,-7.383 6.744,-7.384 7.199,-7.881"
           id="path145" />
        <path
           fill="none"
           stroke-width="3"
           stroke-linecap="butt"
           stroke-opacity="1"
           stroke="#000000"
           stroke-linejoin="miter"
           d="m 1011.624,510.008 -0.014,-0.012 -0.091,0.016 -0.025,-0.035 -0.081,-0.002 -0.027,-0.058 -0.063,-0.014 -0.019,-0.078 -0.042,-0.017 v -0.094 l -0.019,-0.012"
           id="path147" />
        <path
           fill="none"
           stroke-width="3"
           stroke-linecap="butt"
           stroke-opacity="1"
           stroke="#000000"
           stroke-linejoin="miter"
           d="m 1011.259,509.601 10e-4,0.002 0.043,-0.098"
           id="path149" />
        <path
           fill="none"
           stroke-width="3"
           stroke-linecap="butt"
           stroke-opacity="1"
           stroke="#000000"
           stroke-linejoin="miter"
           d="m 1451.639,505.826 -5.986,-3.05 -6.015,-2.907 -6.045,-2.764 -6.073,-2.62 -6.101,-2.477 -6.131,-2.332 -6.158,-2.189 -6.186,-2.046 -6.215,-1.901 -6.242,-1.758 -6.27,-1.614 -6.297,-1.47 -6.324,-1.341 -6.351,-1.23 -6.376,-1.118 -6.402,-1.006 -6.429,-0.894 -6.454,-0.783 -6.479,-0.67 -6.505,-0.558 -6.53,-0.447 -6.555,-0.335 -6.58,-0.222 -6.605,-0.112 -9.456,0.089 -9.297,0.426 -9.137,0.762 -8.976,1.098 -8.815,1.434 -8.654,1.77 -8.493,2.105 -8.331,2.439 -8.17,2.774 -8.007,3.107 -7.845,3.441 -7.682,3.773 -7.466,4.05 -7.198,4.272 -6.928,4.492 -6.661,4.713 -6.391,4.934 -6.124,5.152 -5.856,5.373 -5.588,5.591 -5.321,5.809 -5.054,6.028 -4.787,6.245 -4.521,6.462 -4.205,6.633 -3.844,6.755 -3.481,6.878 -3.119,7.001 -2.759,7.123 -2.398,7.246 -2.038,7.367 -1.679,7.49 -1.32,7.611 -0.962,7.733 -0.603,7.855 -0.247,7.976 0.142,8.478 0.574,8.243 1.003,8.007 1.433,7.772 1.862,7.539 2.29,7.306 2.719,7.074 3.147,6.843 3.575,6.612 4.002,6.383 4.43,6.153 4.858,5.926 5.301,5.751 5.758,5.632 6.217,5.514 6.676,5.395 7.133,5.278 7.592,5.159 8.051,5.043 8.51,4.925 8.814,4.725 0.156,0.084 8.953,4.455 0.476,0.237 9.076,4.2 0.814,0.377 9.183,3.957 1.167,0.503 7.978,3.395 7.685,3.298 7.394,3.201 7.102,3.104 6.809,3.008 6.518,2.91 6.226,2.814 5.934,2.717 5.642,2.62 5.35,2.523 5.058,2.427 4.765,2.33 4.513,2.287 4.298,2.298 4.082,2.311 3.868,2.321 3.652,2.333 3.438,2.345 3.222,2.356 3.008,2.367 2.792,2.379 2.577,2.389 2.362,2.401 2.147,2.412 0.936,1.189"
           id="path151" />
        <path
           fill="none"
           stroke-width="3"
           stroke-linecap="butt"
           stroke-opacity="1"
           stroke="#000000"
           stroke-linejoin="miter"
           d="m 1216.928,586.711 -0.01,-1.072 0.227,-5.003 0.52,-4.812 0.816,-4.624 1.11,-4.434 1.405,-4.244 1.7,-4.054 1.995,-3.864 2.291,-3.673 2.587,-3.483 2.883,-3.291 3.179,-3.101 3.476,-2.909 3.715,-2.695 3.898,-2.457 4.082,-2.218 4.265,-1.979 4.447,-1.741 4.631,-1.502 4.814,-1.263 4.996,-1.023 5.18,-0.784 5.362,-0.544 5.546,-0.304 5.728,-0.065 5.365,0.163 5.232,0.383 5.099,0.605 4.966,0.827 4.832,1.047 4.699,1.269 4.564,1.49 4.429,1.711 4.295,1.932 4.161,2.153 4.025,2.374 3.89,2.595 3.811,2.823 3.789,3.061 3.766,3.298 3.743,3.535 3.72,3.772 3.696,4.008 3.674,4.244 3.65,4.48 3.626,4.716 3.602,4.95 3.579,5.186 3.554,5.419 5.416,8.407 5.416,8.406 5.416,8.407 5.415,8.407 5.416,8.406 5.416,8.407 2.108,3.273 10,0.123 7.449,0.091 0.298,-9.995 0.298,-9.996 0.298,-9.996 0.297,-9.995 0.298,-9.996 0.298,-9.995 0.298,-9.996 0.298,-9.995 0.298,-9.996 0.298,-9.995 0.297,-9.996 0.298,-9.996 0.298,-9.995 0.172,-5.772 -6.288,-7.775 -6.289,-7.776 -3.269,-4.042 -5.692,-2.901 -5.72,-2.764 -5.747,-2.628 -5.774,-2.491 -5.801,-2.355 -5.828,-2.218 -5.855,-2.081 -5.881,-1.944 -5.908,-1.807 -5.934,-1.671 -5.961,-1.533 -5.986,-1.396 -6.012,-1.275 -6.036,-1.168 -6.062,-1.061 -6.086,-0.955 -6.111,-0.849 -6.135,-0.742 -6.159,-0.635 -6.184,-0.529 -6.207,-0.422 -6.232,-0.316 -6.255,-0.21 -6.278,-0.103 -8.99,0.088 -8.838,0.409 -8.685,0.729 -8.534,1.049 -8.38,1.369 -8.227,1.688 -8.074,2.007 -7.92,2.326 -7.767,2.644 -7.613,2.961 -7.459,3.279 -7.304,3.596 -7.099,3.859 -6.844,4.07 -6.588,4.281 -6.334,4.49 -6.078,4.7 -5.824,4.91 -5.569,5.118 -5.315,5.327 -5.06,5.536 -4.807,5.743 -4.554,5.95 -4.3,6.158 -4.001,6.319 -3.656,6.437 -3.312,6.554 -2.968,6.671 -2.625,6.787 -2.281,6.905 -1.94,7.021 -1.598,7.137 -1.257,7.253 -0.915,7.37 -0.576,7.485 -0.582,9.983 -0.582,9.983 -0.329,5.642"
           id="path153" />
        <path
           fill="none"
           stroke-width="3"
           stroke-linecap="butt"
           stroke-opacity="1"
           stroke="#000000"
           stroke-linejoin="miter"
           d="m 1217.811,598.539 -0.428,-3.096 -0.291,-3.182 -0.154,-3.268 -0.01,-2.282"
           id="path155" />
        <path
           fill="none"
           stroke-width="3"
           stroke-linecap="butt"
           stroke-opacity="1"
           stroke="#000000"
           stroke-linejoin="miter"
           d="m 1340.185,855.295 -0.697,8.153 -1.966,8.634 -3.119,7.78 -4.27,6.926 -5.419,6.076 -6.567,5.226 -7.714,4.379 -8.86,3.532 -9.658,2.595 -0.347,0.093 -9.866,1.632 -1.284,0.212 -9.967,0.812 -2.326,0.19 -10,0.119 -3.437,0.041 -9.986,-0.532 -1.641,-0.087 -9.921,-1.256 -1.252,-0.159 -9.794,-2.019 -0.929,-0.191 -9.597,-2.809 -0.677,-0.198 -9.326,-3.608 -0.502,-0.195 -8.979,-4.402 -0.404,-0.198 -8.56,-5.169 -0.38,-0.229 -8.079,-5.892 -0.419,-0.305 -7.55,-6.557 -0.508,-0.441 -6.986,-7.155 -0.632,-0.646 -6.406,-7.679 -0.774,-0.927 -5.823,-8.129 -0.92,-1.284 -5.606,-8.28 -5.606,-8.281 -5.607,-8.281 -5.606,-8.28 -5.607,-8.281 -5.606,-8.28 -3.494,-5.161 -9.999,-0.16 -6.16,-0.098 -0.56,9.984 -0.56,9.984 -0.56,9.985 -0.265,4.717 -0.08,10 -0.08,10 -0.08,9.999 -0.08,10 -0.08,10 -0.08,10 -0.08,9.999 -0.08,10 -0.08,10 -0.08,9.999 -0.08,10 -0.08,10 -0.049,6.107 6.534,3.129 6.558,3.017 6.582,2.905 6.605,2.793 6.631,2.681 6.655,2.57 6.679,2.458 6.705,2.346 6.729,2.235 6.754,2.122 6.78,2.012 6.805,1.9 6.917,1.775 7.115,1.637 7.313,1.5 7.512,1.362 7.712,1.224 7.91,1.086 8.111,0.948 8.311,0.811 8.512,0.673 8.712,0.535 8.915,0.397 9.116,0.259 8.427,0.039 8.349,-0.232 8.272,-0.504 8.195,-0.776 8.118,-1.047 8.042,-1.319 7.967,-1.592 7.891,-1.865 7.815,-2.138 7.74,-2.411 7.666,-2.685 7.591,-2.96 7.446,-3.22 7.228,-3.468 7.011,-3.717 6.795,-3.965 6.577,-4.214 6.36,-4.464 6.143,-4.714 5.926,-4.964 5.708,-5.215 5.49,-5.467 5.272,-5.718 5.055,-5.971 4.752,-6.203 4.366,-6.413 3.978,-6.626 3.591,-6.837 3.203,-7.049 2.813,-7.261 2.424,-7.475 2.034,-7.688 1.643,-7.902 1.253,-8.116 0.86,-8.33 0.468,-8.546 0.118,-8.503 -0.187,-8.201 -0.493,-7.899 -0.8,-7.595 -1.107,-7.291 -1.414,-6.985 -1.722,-6.679 -2.029,-6.372 -2.337,-6.063 -2.645,-5.754 -2.954,-5.445 -3.261,-5.135 -3.491,-4.888 -3.642,-4.707 -3.794,-4.524 -3.946,-4.342 -4.096,-4.159 -4.248,-3.976 -4.398,-3.793 -4.55,-3.609 -4.7,-3.426 -4.851,-3.241 -5.001,-3.058 -5.151,-2.873 -5.232,-2.754 -5.241,-2.699 -5.251,-2.646 -5.261,-2.591 -5.27,-2.538 -5.281,-2.482 -5.289,-2.429 -5.3,-2.374 -5.309,-2.32 -5.318,-2.265 -5.328,-2.212 -5.337,-2.156 -7.671,-3.065 -7.367,-2.998 -7.064,-2.932 -6.762,-2.866 -6.458,-2.8 -6.155,-2.733 -5.853,-2.667 -5.549,-2.601 -5.246,-2.535 -4.944,-2.468 -4.641,-2.402 -4.338,-2.336 -4.079,-2.306 -3.862,-2.311 -3.647,-2.317 -3.431,-2.322 -3.215,-2.327 -2.999,-2.333 -2.783,-2.338 -2.567,-2.344 -2.351,-2.349 -2.136,-2.356 -1.919,-2.36 -1.704,-2.367 -1.527,-2.412 -1.39,-2.497 -1.252,-2.583 -1.115,-2.667 -0.978,-2.754 -0.841,-2.838 -0.703,-2.925 -0.566,-3.01"
           id="path157" />
        <path
           fill="none"
           stroke-width="3"
           stroke-linecap="butt"
           stroke-opacity="1"
           stroke="#000000"
           stroke-linejoin="miter"
           d="m 1106.38,831.481 -9.999,-0.167 -6.974,-0.118"
           id="path159" />
        <path
           fill="none"
           stroke-width="3"
           stroke-linecap="butt"
           stroke-opacity="1"
           stroke="#000000"
           stroke-linejoin="miter"
           d="m 1340.185,855.295 1.015,1.288 1.772,2.596 1.595,2.713 1.417,2.833 1.239,2.95 1.061,3.068 0.883,3.186 0.706,3.303 0.528,3.421 0.351,3.538 0.173,3.656 v 3.772 l -0.859,9.946 -2.071,9.046 -3.282,8.149 -4.491,7.254 -5.697,6.361 -6.903,5.469 -8.107,4.58 -9.309,3.692 -9.662,2.579 -0.85,0.227 -9.868,1.618 -1.845,0.302 -9.968,0.8 -2.946,0.237 -9.999,0.109 -4.115,0.045 -9.985,-0.54 -2.226,-0.12 -9.92,-1.263 -1.815,-0.231 -9.793,-2.023 -1.469,-0.303 -9.596,-2.811 -1.193,-0.349 -9.326,-3.609 -0.995,-0.385 -8.98,-4.401 -0.874,-0.428 -8.562,-5.166 -0.826,-0.498 -8.082,-5.888 -0.842,-0.613 -7.554,-6.553 -0.907,-0.787 -6.992,-7.149 -1.009,-1.032 -6.412,-7.673 -1.128,-1.35 -5.829,-8.125 -1.252,-1.744 -5.613,-8.277 -5.612,-8.276 -5.613,-8.276 -5.613,-8.277 -5.612,-8.276 -5.613,-8.276 -5.325,-7.853 0.326,-9.994 0.325,-9.995 0.326,-9.995 0.154,-4.713"
           id="path161" />
        <path
           fill="none"
           stroke-width="3"
           stroke-linecap="butt"
           stroke-opacity="1"
           stroke="#000000"
           stroke-linejoin="miter"
           d="m 608.542,136.112 -10,-0.007 -3.836,-0.003 -9.594,2.821 -9.594,2.82 -9.594,2.821 -9.594,2.82 -9.594,2.821 -9.594,2.82 -9.594,2.821 -9.594,2.82 -9.594,2.821 -9.594,2.82 -9.594,2.82 -9.594,2.821 -9.594,2.82 -9.594,2.821 -9.594,2.82 -9.594,2.821 -9.594,2.82 -9.594,2.821 -9.594,2.82 -9.594,2.82 -9.594,2.821 -9.594,2.82 -6.851,2.015 0.347,9.993 0.137,3.951 8.06,5.918 8.06,5.919 8.061,5.919 8.06,5.919 8.061,5.918 8.06,5.919 8.06,5.919 8.061,5.918 8.06,5.919 1.906,1.4 0.304,9.995 0.303,9.995 0.304,9.996 0.303,9.995 0.304,9.995 0.303,9.996 0.304,9.995 0.304,9.996 0.303,9.995 0.304,9.995 0.303,9.996 0.304,9.995 0.303,9.996 0.304,9.995 0.304,9.995 0.303,9.996 0.304,9.995 0.303,9.996 0.304,9.995 0.303,9.995 0.304,9.996 0.304,9.995 0.303,9.996 0.304,9.995 0.303,9.995 0.304,9.996 0.303,9.995 0.304,9.995 0.304,9.996 0.303,9.995 0.304,9.996 0.303,9.995 0.304,9.995 0.303,9.996 0.304,9.995 0.304,9.996 0.303,9.995 0.304,9.995 0.303,9.996 0.304,9.995 0.303,9.996 0.304,9.995 0.303,9.995 0.304,9.996 0.304,9.995 0.303,9.996 0.304,9.995 0.303,9.995 0.304,9.996 0.303,9.995 0.304,9.995 0.304,9.996 0.303,9.995 0.304,9.996 0.303,9.995 0.304,9.995 0.303,9.996 0.304,9.995 0.304,9.996 0.303,9.995 0.304,9.995 0.303,9.996 0.286,9.391"
           id="path163" />
        <path
           fill="none"
           stroke-width="3"
           stroke-linecap="butt"
           stroke-opacity="1"
           stroke="#000000"
           stroke-linejoin="miter"
           d="m 620.151,693.295 -0.209,-9.998 -0.208,-9.998 -0.208,-9.998 -0.209,-9.998 -0.208,-9.997 -0.208,-9.998 -0.208,-9.998 -0.209,-9.998 -0.208,-9.998 -0.208,-9.998 -0.209,-9.997 -0.208,-9.998 -0.208,-9.998 -0.209,-9.998 -0.208,-9.998 -0.208,-9.998 -0.209,-9.997 -0.208,-9.998 -0.208,-9.998 -0.209,-9.998 -0.208,-9.998 -0.208,-9.997 -0.208,-9.998 -0.209,-9.998 -0.208,-9.998 -0.208,-9.998 -0.209,-9.998 -0.208,-9.997 -0.208,-9.998 -0.209,-9.998 -0.208,-9.998 -0.208,-9.998 -0.209,-9.998 -0.208,-9.997 -0.208,-9.998 -0.208,-9.998 -0.209,-9.998 -0.208,-9.998 -0.208,-9.998 -0.209,-9.997 -0.208,-9.998 -0.208,-9.998 -0.209,-9.998 -0.208,-9.998 -0.208,-9.998 -0.209,-9.997 -0.208,-9.998 -0.208,-9.998 -0.208,-9.998 -0.209,-9.998 -0.208,-9.998 -0.208,-9.997 -0.209,-9.998 -0.208,-9.998 -0.208,-9.998 -0.152,-7.302 9.985,-0.537 9.986,-0.536 5.77,-0.31"
           id="path165" />
        <path
           fill="none"
           stroke-width="3"
           stroke-linecap="butt"
           stroke-opacity="1"
           stroke="#000000"
           stroke-linejoin="miter"
           d="m 972.359,478.654 -10,-0.086 -10,-0.086 -9.999,-0.086 -10,-0.087 -10,-0.086 -9.999,-0.086 -10,-0.086 -9.999,-0.087 -10,-0.086 -10,-0.086 -9.999,-0.087 -10,-0.086 -10,-0.086 -9.999,-0.086 -10,-0.087 -9.999,-0.086 -10,-0.086 -10,-0.086 -9.999,-0.087 -10,-0.086 -10,-0.086 -9.999,-0.087 -10,-0.086 -12.286,-0.106"
           id="path167" />
        <path
           fill="none"
           stroke-width="3"
           stroke-linecap="butt"
           stroke-opacity="1"
           stroke="#000000"
           stroke-linejoin="miter"
           d="m 770.205,635.399 7.917,-6.11 7.916,-6.109 7.917,-6.11 7.917,-6.109 7.916,-6.109 7.917,-6.11 7.917,-6.11 7.916,-6.109 7.917,-6.11 7.917,-6.109 7.916,-6.11 7.917,-6.109 7.917,-6.11 7.916,-6.109 7.917,-6.11 7.917,-6.109 2.271,-1.753 8.825,-4.702 8.825,-4.703 8.825,-4.703 8.825,-4.703 8.825,-4.703 8.825,-4.703 8.826,-4.703 8.825,-4.703 2.601,-1.386 3.757,-9.267 3.757,-9.268 0.171,-0.421 0.012,-10 0.009,-7.361 -10,-0.082 -9.999,-0.082 -10,-0.082 -10,-0.082 -9.999,-0.082 -10,-0.082 -10,-0.082 -9.999,-0.083 -10,-0.082 -10,-0.082 -9.999,-0.082 -10,-0.082 -10,-0.082 -9.999,-0.082 -10,-0.082 -10,-0.082 -9.999,-0.082 -10,-0.082 -10,-0.082 -9.999,-0.082 -10,-0.082 -10,-0.082 -10.565,-0.087 -7.354,6.776 -7.353,6.777 -4.705,4.335 0.139,9.999 0.113,8.131 8.061,5.918 8.061,5.918 8.06,5.918 8.061,5.918 8.061,5.918 8.061,5.918 7.758,5.696 0.009,0.841"
           id="path169" />
        <path
           fill="none"
           stroke-width="3"
           stroke-linecap="butt"
           stroke-opacity="1"
           stroke="#000000"
           stroke-linejoin="miter"
           d="m 972.345,496.885 0.007,-10 0.007,-8.231 3.913,-9.202 3.779,-8.884"
           id="path171" />
        <path
           fill="none"
           stroke-width="3"
           stroke-linecap="butt"
           stroke-opacity="1"
           stroke="#000000"
           stroke-linejoin="miter"
           d="m 746.042,654.046 7.917,-6.11 7.917,-6.109 7.916,-6.11 0.413,-0.318"
           id="path173" />
        <path
           fill="none"
           stroke-width="3"
           stroke-linecap="butt"
           stroke-opacity="1"
           stroke="#000000"
           stroke-linejoin="miter"
           d="m 786.465,536.739 0.062,5.923 -7.413,6.711 -7.413,6.712 -7.413,6.712 -7.413,6.711 -7.413,6.712 -7.413,6.711 -7.414,6.712 -7.413,6.712 -7.413,6.711 -7.413,6.712 -7.413,6.712 -7.413,6.711 -7.413,6.712 -7.413,6.711 -7.413,6.712 -7.413,6.712 -7.414,6.711 -7.413,6.712 -7.413,6.712 -7.413,6.711 -7.413,6.712 -7.413,6.712 -3.288,2.977 6.568,-7.54 6.569,-7.54 6.569,-7.54 4.671,-5.362"
           id="path175" />
        <path
           fill="none"
           stroke-width="3"
           stroke-linecap="butt"
           stroke-opacity="1"
           stroke="#000000"
           stroke-linejoin="miter"
           d="m 1024.483,966.804 -8.828,-4.698 -8.828,-4.697 -8.828,-4.698 -8.828,-4.697 -8.828,-4.698 -8.828,-4.698 -8.828,-4.697 -8.828,-4.698 -0.834,-0.444 -6.018,-7.987 -6.017,-7.987 -6.017,-7.987 -6.018,-7.987 -6.017,-7.987 -6.017,-7.987 -6.018,-7.987 -6.017,-7.987 -6.017,-7.987 -6.018,-7.987 -6.017,-7.987 -6.017,-7.987 -6.018,-7.986 -6.017,-7.987 -6.017,-7.987 -6.018,-7.987 -6.017,-7.987 -6.017,-7.987 -6.018,-7.987 -6.017,-7.987 -6.017,-7.987 -6.018,-7.987 -6.017,-7.987 -6.017,-7.987 -6.018,-7.987 -6.017,-7.987 -6.017,-7.987 -6.018,-7.987 -6.017,-7.987 -6.017,-7.987 -6.018,-7.987 -6.017,-7.987 -6.017,-7.987 -6.018,-7.987 -2.393,-3.176"
           id="path177" />
        <path
           fill="none"
           stroke-width="3"
           stroke-linecap="butt"
           stroke-opacity="1"
           stroke="#000000"
           stroke-linejoin="miter"
           d="m 624.993,925.72 -0.208,-9.998 -0.208,-9.998 -0.209,-9.998 -0.208,-9.998 -0.208,-9.998 -0.209,-9.997 -0.208,-9.998 -0.208,-9.998 -0.209,-9.998 -0.208,-9.998 -0.208,-9.998 -0.208,-9.997 -0.209,-9.998 -0.208,-9.998 -0.208,-9.998 -0.209,-9.998 -0.208,-9.998 -0.208,-9.997 -0.209,-9.998 -0.208,-9.998 -0.172,-8.265 5.947,8.04 5.947,8.039 5.947,8.04 5.947,8.039 1.759,2.378"
           id="path179" />
        <path
           fill="none"
           stroke-width="3"
           stroke-linecap="butt"
           stroke-opacity="1"
           stroke="#000000"
           stroke-linejoin="miter"
           d="m 646.202,752.034 5.947,8.039 5.947,8.039 5.947,8.04 5.947,8.039 5.947,8.04 5.947,8.039 5.947,8.04 5.947,8.039 5.947,8.039 5.948,8.04 5.947,8.039 5.947,8.04 5.947,8.039 5.947,8.04 5.947,8.039 5.947,8.04 5.947,8.039 5.947,8.039 5.947,8.04 5.947,8.039 5.947,8.04 1.719,2.323 5.262,8.504 5.262,8.503 5.262,8.504 5.262,8.504 5.262,8.503 5.262,8.504 3.326,5.375 9.998,0.204 9.998,0.203 9.998,0.204 9.998,0.204 9.998,0.203 9.998,0.204 9.998,0.204 9.997,0.203 9.998,0.204 9.998,0.204 9.998,0.203 9.998,0.204 9.998,0.203 9.998,0.204 9.998,0.204 9.998,0.203 9.998,0.204 9.998,0.204 9.998,0.203 9.998,0.204 9.998,0.204 6.75,0.137 1.196,-9.928 1.197,-9.928 1.196,-9.928 1.196,-9.929 0.223,-1.844 0.043,-10 0.028,-6.418 -8.827,-4.7 -8.827,-4.701 -8.826,-4.7 -8.827,-4.7 -8.826,-4.7 -8.827,-4.7 -8.827,-4.7 -6.273,-3.341 -6.009,-7.993 -6.009,-7.994 -6.009,-7.993 -6.009,-7.993 -6.009,-7.994 -6.009,-7.993 -6.008,-7.993 -6.009,-7.994 -6.009,-7.993 -6.009,-7.993 -6.009,-7.994 -6.009,-7.993 -6.009,-7.993 -6.009,-7.993 -6.009,-7.994 -6.009,-7.993 -6.009,-7.993 -6.008,-7.994 -6.009,-7.993 -6.009,-7.993 -6.009,-7.994 -6.009,-7.993 -6.009,-7.993 -6.009,-7.994 -6.009,-7.993 -6.009,-7.993 -6.009,-7.993 -6.009,-7.994 -6.008,-7.993 -6.009,-7.993 -6.009,-7.994 -4.952,-6.587"
           id="path181" />
        <path
           fill="none"
           stroke-width="3"
           stroke-linecap="butt"
           stroke-opacity="1"
           stroke="#000000"
           stroke-linejoin="miter"
           d="m 470.827,897.884 0.303,9.995 0.304,9.996 0.116,3.833 -9.105,4.134 -9.106,4.135 -9.105,4.134 -9.106,4.134 -9.105,4.134 -9.106,4.134 -9.105,4.134 -8.107,3.681"
           id="path183" />
        <path
           fill="none"
           stroke-width="3"
           stroke-linecap="butt"
           stroke-opacity="1"
           stroke="#000000"
           stroke-linejoin="miter"
           d="m 697.141,960.267 -9.02,-4.319 -9.019,-4.318 -9.019,-4.319 -9.019,-4.319 -9.02,-4.319 -9.019,-4.319 -9.019,-4.319 -9.013,-4.315 5.255,-8.509 5.255,-8.508 5.254,-8.508 5.255,-8.508 2.799,-4.532"
           id="path185" />
        <path
           fill="none"
           stroke-width="3"
           stroke-linecap="butt"
           stroke-opacity="1"
           stroke="#000000"
           stroke-linejoin="miter"
           d="m 470.827,897.884 -9.101,4.144 -9.102,4.143 -9.101,4.144 -9.101,4.144 -0.515,0.235 -6.533,7.571 -6.533,7.57 -6.533,7.571 -6.534,7.571 -6.533,7.571 -1.536,1.78 0.349,9.994 0.243,6.962 9.998,0.203 9.998,0.204 9.998,0.204 9.998,0.203 9.998,0.204 9.998,0.204 9.998,0.203 9.997,0.204 9.998,0.203 9.998,0.204 9.998,0.204 9.998,0.203 9.998,0.204 9.998,0.204 9.998,0.203 9.998,0.204 9.998,0.204 9.998,0.203 9.998,0.204 9.998,0.204 9.997,0.203 9.998,0.204 9.998,0.204 9.998,0.203 9.998,0.204 9.998,0.203 9.998,0.204 9.998,0.204 9.998,0.203 7.183,0.147 4.455,-8.953 4.455,-8.953 4.455,-8.953 4.455,-8.953 2.554,-5.131 -0.151,-9.999 -0.095,-6.306 -9.019,-4.321 -9.018,-4.321 -9.018,-4.32 -9.019,-4.321 -9.018,-4.321 -9.018,-4.321 -9.019,-4.321 -5.608,-2.687 -0.193,-9.998 -0.193,-9.998 -0.193,-9.998 -0.193,-9.999 -0.193,-9.998 -0.193,-9.998 -0.194,-9.998 -0.193,-9.998 -0.193,-9.998 -0.193,-9.998 -0.193,-9.999 -0.193,-9.998 -0.193,-9.998 -0.099,-5.145"
           id="path187" />
        <path
           fill="none"
           stroke-width="3"
           stroke-linecap="butt"
           stroke-opacity="1"
           stroke="#000000"
           stroke-linejoin="miter"
           d="m 697.42,977.336 -0.163,-9.999 -0.116,-7.07 4.528,-8.916 4.529,-8.915 4.528,-8.916 4.528,-8.916 2.294,-4.516"
           id="path189" />
        <path
           fill="none"
           stroke-width="3"
           stroke-linecap="butt"
           stroke-opacity="1"
           stroke="#000000"
           stroke-linejoin="miter"
           d="m 1024.414,983.996 0.04,-10 0.029,-7.192 1.219,-9.925 1.219,-9.926 1.22,-9.925 1.219,-9.926 0.133,-1.081"
           id="path191" />
        <path
           fill="none"
           stroke-width="3"
           stroke-linecap="butt"
           stroke-opacity="1"
           stroke="#000000"
           stroke-linejoin="miter"
           d="m 1454.424,767.3 -4.417,-8.973 -4.416,-8.972 -4.416,-8.972 -2.498,-5.075 -2.814,-5.189 -3.106,-4.892 -3.325,-4.657 -3.468,-4.484 -3.612,-4.31 -3.757,-4.136 -3.899,-3.962 -4.043,-3.787 -4.187,-3.612 -4.33,-3.437 -4.473,-3.261 -4.616,-3.086 -4.758,-2.911 -4.902,-2.735 -4.977,-2.621 -4.987,-2.57 -4.996,-2.517 -5.005,-2.467 -5.015,-2.414 -5.024,-2.363 -5.032,-2.311 -5.042,-2.259 -5.051,-2.208 -5.06,-2.155 -5.069,-2.104 -5.077,-2.052 -7.298,-2.915 -7.009,-2.853 -6.721,-2.79 -6.432,-2.727 -6.144,-2.663 -5.856,-2.601 -5.568,-2.538 -5.28,-2.475 -4.991,-2.412 -4.704,-2.349 -4.415,-2.287 -4.127,-2.223 -3.881,-2.195 -3.675,-2.199 -3.469,-2.205 -3.265,-2.211 -3.058,-2.215 -2.854,-2.221 -2.648,-2.227 -2.442,-2.232 -2.238,-2.237 -2.032,-2.243 -1.826,-2.248 -1.621,-2.254 -1.453,-2.297 -1.323,-2.378 -1.192,-2.46 -0.602,-1.442"
           id="path193" />
        <path
           fill="none"
           stroke-width="3"
           stroke-linecap="butt"
           stroke-opacity="1"
           stroke="#000000"
           stroke-linejoin="miter"
           d="m 786.465,536.739 -7.412,6.714 -7.411,6.713 -7.411,6.714 -7.412,6.714 -7.411,6.713 -7.411,6.714 -7.412,6.713 -7.411,6.714 -7.411,6.713 -7.412,6.714 -7.411,6.714 -7.411,6.713 -7.412,6.714 -7.411,6.713 -7.412,6.714 -7.411,6.713 -7.411,6.714 -7.412,6.713 -8.532,7.73 -0.194,-9.998 -0.193,-9.998 -0.193,-9.998 -0.193,-9.999 -0.193,-9.998 -0.193,-9.998 -0.193,-9.998 -0.193,-9.998 -0.193,-9.998 -0.193,-9.998 -0.193,-9.999 -0.193,-9.998 -0.193,-9.998 -0.193,-9.998 -0.193,-9.998 -0.193,-9.998 -0.193,-9.998 -0.193,-9.999 -0.193,-9.998 -0.193,-9.998 -0.193,-9.998 -0.193,-9.998 -0.193,-9.998 -0.193,-9.998 -0.194,-9.998 -0.193,-9.999 -0.193,-9.998 -0.193,-9.998 -0.193,-9.998 -0.193,-9.998 -0.193,-9.998 -0.193,-9.998 -0.193,-9.999 -0.193,-9.998 -0.193,-9.998 -0.193,-9.998 -0.193,-9.998 -0.193,-9.998 -0.193,-9.998 -0.193,-9.999 -0.193,-9.998 -0.193,-9.998 -0.193,-9.998 -0.193,-9.998 -0.193,-9.998 -0.193,-9.998 -0.193,-9.998 -0.193,-9.999 -0.193,-9.998 -0.194,-9.998 -0.193,-9.998 -0.193,-9.998 -0.206,-10.681 -10,-0.007 -3.16,-0.002 -9.987,0.523 -9.986,0.522 -6.444,0.337"
           id="path195" />
        <path
           fill="none"
           stroke-width="3"
           stroke-linecap="butt"
           stroke-opacity="1"
           stroke="#000000"
           stroke-linejoin="miter"
           d="m 1451.639,505.826 -5.986,-3.05 -6.015,-2.907 -6.045,-2.764 -6.073,-2.62 -6.101,-2.477 -6.131,-2.332 -6.158,-2.189 -6.186,-2.046 -6.215,-1.901 -6.242,-1.758 -6.27,-1.614 -6.297,-1.47 -6.324,-1.341 -6.351,-1.23 -6.376,-1.118 -6.402,-1.006 -6.429,-0.894 -6.454,-0.783 -6.479,-0.67 -6.505,-0.558 -6.53,-0.447 -6.555,-0.335 -6.58,-0.222 -6.605,-0.112 -9.456,0.089 -9.297,0.426 -9.137,0.762 -8.976,1.098 -8.815,1.434 -8.654,1.77 -8.493,2.105 -8.331,2.439 -8.17,2.774 -8.007,3.107 -7.845,3.441 -7.682,3.773 -7.466,4.05 -7.198,4.272 -6.928,4.492 -6.661,4.713 -6.391,4.934 -6.124,5.152 -5.856,5.373 -5.588,5.591 -5.321,5.809 -5.054,6.028 -4.787,6.245 -4.521,6.462 -4.205,6.633 -3.844,6.755 -3.481,6.878 -3.119,7.001 -2.759,7.123 -2.398,7.246 -2.038,7.367 -1.679,7.49 -1.32,7.611 -0.962,7.733 -0.603,7.855 -0.247,7.976 0.142,8.478 0.574,8.243 1.003,8.007 1.433,7.772 1.862,7.539 2.29,7.306 2.719,7.074 3.147,6.843 3.575,6.612 4.002,6.383 4.43,6.153 4.858,5.926 5.301,5.751 5.758,5.632 6.217,5.514 6.676,5.395 7.133,5.278 7.592,5.159 8.051,5.043 8.51,4.925 8.814,4.725 0.156,0.084 8.953,4.455 0.476,0.237 9.076,4.2 0.814,0.377 9.183,3.957 1.167,0.503 7.978,3.395 7.685,3.298 7.394,3.201 7.102,3.104 6.809,3.008 6.518,2.91 6.226,2.814 5.934,2.717 5.642,2.62 5.35,2.523 5.058,2.427 4.765,2.33 4.513,2.287 4.298,2.298 4.082,2.311 3.868,2.321 3.652,2.333 3.438,2.345 3.222,2.356 3.008,2.367 2.792,2.379 2.577,2.389 2.362,2.401 2.147,2.412 0.936,1.189"
           id="path197" />
        <path
           fill="none"
           stroke-width="3"
           stroke-linecap="butt"
           stroke-opacity="1"
           stroke="#000000"
           stroke-linejoin="miter"
           d="m 1216.928,586.711 -0.01,-1.072 0.227,-5.003 0.52,-4.812 0.816,-4.624 1.11,-4.434 1.405,-4.244 1.7,-4.054 1.995,-3.864 2.291,-3.673 2.587,-3.483 2.883,-3.291 3.179,-3.101 3.476,-2.909 3.715,-2.695 3.898,-2.457 4.082,-2.218 4.265,-1.979 4.447,-1.741 4.631,-1.502 4.814,-1.263 4.996,-1.023 5.18,-0.784 5.362,-0.544 5.546,-0.304 5.728,-0.065 5.365,0.163 5.232,0.383 5.099,0.605 4.966,0.827 4.832,1.047 4.699,1.269 4.564,1.49 4.429,1.711 4.295,1.932 4.161,2.153 4.025,2.374 3.89,2.595 3.811,2.823 3.789,3.061 3.766,3.298 3.743,3.535 3.72,3.772 3.696,4.008 3.674,4.244 3.65,4.48 3.626,4.716 3.602,4.95 3.579,5.186 3.554,5.419 5.416,8.407 5.416,8.406 5.416,8.407 5.415,8.407 5.416,8.406 5.416,8.407 2.108,3.273 10,0.123 7.449,0.091 0.298,-9.995 0.298,-9.996 0.298,-9.996 0.297,-9.995 0.298,-9.996 0.298,-9.995 0.298,-9.996 0.298,-9.995 0.298,-9.996 0.298,-9.995 0.297,-9.996 0.298,-9.996 0.298,-9.995 0.172,-5.772 -6.288,-7.775 -6.289,-7.776 -3.269,-4.042 -5.692,-2.901 -5.72,-2.764 -5.747,-2.628 -5.774,-2.491 -5.801,-2.355 -5.828,-2.218 -5.855,-2.081 -5.881,-1.944 -5.908,-1.807 -5.934,-1.671 -5.961,-1.533 -5.986,-1.396 -6.012,-1.275 -6.036,-1.168 -6.062,-1.061 -6.086,-0.955 -6.111,-0.849 -6.135,-0.742 -6.159,-0.635 -6.184,-0.529 -6.207,-0.422 -6.232,-0.316 -6.255,-0.21 -6.278,-0.103 -8.99,0.088 -8.838,0.409 -8.685,0.729 -8.534,1.049 -8.38,1.369 -8.227,1.688 -8.074,2.007 -7.92,2.326 -7.767,2.644 -7.613,2.961 -7.459,3.279 -7.304,3.596 -7.099,3.859 -6.844,4.07 -6.588,4.281 -6.334,4.49 -6.078,4.7 -5.824,4.91 -5.569,5.118 -5.315,5.327 -5.06,5.536 -4.807,5.743 -4.554,5.95 -4.3,6.158 -4.001,6.319 -3.656,6.437 -3.312,6.554 -2.968,6.671 -2.625,6.787 -2.281,6.905 -1.94,7.021 -1.598,7.137 -1.257,7.253 -0.915,7.37 -0.576,7.485 -0.582,9.983 -0.582,9.983 -0.329,5.642"
           id="path199" />
        <path
           fill="none"
           stroke-width="3"
           stroke-linecap="butt"
           stroke-opacity="1"
           stroke="#000000"
           stroke-linejoin="miter"
           d="m 1217.811,598.539 -0.428,-3.096 -0.291,-3.182 -0.154,-3.268 -0.01,-2.282"
           id="path201" />
        <path
           fill="none"
           stroke-width="3"
           stroke-linecap="butt"
           stroke-opacity="1"
           stroke="#000000"
           stroke-linejoin="miter"
           d="m 1340.185,855.295 -0.697,8.153 -1.966,8.634 -3.119,7.78 -4.27,6.926 -5.419,6.076 -6.567,5.226 -7.714,4.379 -8.86,3.532 -9.658,2.595 -0.347,0.093 -9.866,1.632 -1.284,0.212 -9.967,0.812 -2.326,0.19 -10,0.119 -3.437,0.041 -9.986,-0.532 -1.641,-0.087 -9.921,-1.256 -1.252,-0.159 -9.794,-2.019 -0.929,-0.191 -9.597,-2.809 -0.677,-0.198 -9.326,-3.608 -0.502,-0.195 -8.979,-4.402 -0.404,-0.198 -8.56,-5.169 -0.38,-0.229 -8.079,-5.892 -0.419,-0.305 -7.55,-6.557 -0.508,-0.441 -6.986,-7.155 -0.632,-0.646 -6.406,-7.679 -0.774,-0.927 -5.823,-8.129 -0.92,-1.284 -5.606,-8.28 -5.606,-8.281 -5.607,-8.281 -5.606,-8.28 -5.607,-8.281 -5.606,-8.28 -3.494,-5.161 -9.999,-0.16 -6.16,-0.098 -0.56,9.984 -0.56,9.984 -0.56,9.985 -0.265,4.717 -0.08,10 -0.08,10 -0.08,9.999 -0.08,10 -0.08,10 -0.08,10 -0.08,9.999 -0.08,10 -0.08,10 -0.08,9.999 -0.08,10 -0.08,10 -0.049,6.107 6.534,3.129 6.558,3.017 6.582,2.905 6.605,2.793 6.631,2.681 6.655,2.57 6.679,2.458 6.705,2.346 6.729,2.235 6.754,2.122 6.78,2.012 6.805,1.9 6.917,1.775 7.115,1.637 7.313,1.5 7.512,1.362 7.712,1.224 7.91,1.086 8.111,0.948 8.311,0.811 8.512,0.673 8.712,0.535 8.915,0.397 9.116,0.259 8.427,0.039 8.349,-0.232 8.272,-0.504 8.195,-0.776 8.118,-1.047 8.042,-1.319 7.967,-1.592 7.891,-1.865 7.815,-2.138 7.74,-2.411 7.666,-2.685 7.591,-2.96 7.446,-3.22 7.228,-3.468 7.011,-3.717 6.795,-3.965 6.577,-4.214 6.36,-4.464 6.143,-4.714 5.926,-4.964 5.708,-5.215 5.49,-5.467 5.272,-5.718 5.055,-5.971 4.752,-6.203 4.366,-6.413 3.978,-6.626 3.591,-6.837 3.203,-7.049 2.813,-7.261 2.424,-7.475 2.034,-7.688 1.643,-7.902 1.253,-8.116 0.86,-8.33 0.468,-8.546 0.118,-8.503 -0.187,-8.201 -0.493,-7.899 -0.8,-7.595 -1.107,-7.291 -1.414,-6.985 -1.722,-6.679 -2.029,-6.372 -2.337,-6.063 -2.645,-5.754 -2.954,-5.445 -3.261,-5.135 -3.491,-4.888 -3.642,-4.707 -3.794,-4.524 -3.946,-4.342 -4.096,-4.159 -4.248,-3.976 -4.398,-3.793 -4.55,-3.609 -4.7,-3.426 -4.851,-3.241 -5.001,-3.058 -5.151,-2.873 -5.232,-2.754 -5.241,-2.699 -5.251,-2.646 -5.261,-2.591 -5.27,-2.538 -5.281,-2.482 -5.289,-2.429 -5.3,-2.374 -5.309,-2.32 -5.318,-2.265 -5.328,-2.212 -5.337,-2.156 -7.671,-3.065 -7.367,-2.998 -7.064,-2.932 -6.762,-2.866 -6.458,-2.8 -6.155,-2.733 -5.853,-2.667 -5.549,-2.601 -5.246,-2.535 -4.944,-2.468 -4.641,-2.402 -4.338,-2.336 -4.079,-2.306 -3.862,-2.311 -3.647,-2.317 -3.431,-2.322 -3.215,-2.327 -2.999,-2.333 -2.783,-2.338 -2.567,-2.344 -2.351,-2.349 -2.136,-2.356 -1.919,-2.36 -1.704,-2.367 -1.527,-2.412 -1.39,-2.497 -1.252,-2.583 -1.115,-2.667 -0.978,-2.754 -0.841,-2.838 -0.703,-2.925 -0.566,-3.01"
           id="path203" />
        <path
           fill="none"
           stroke-width="3"
           stroke-linecap="butt"
           stroke-opacity="1"
           stroke="#000000"
           stroke-linejoin="miter"
           d="m 1106.38,831.481 -9.999,-0.167 -6.974,-0.118"
           id="path205" />
        <path
           fill="none"
           stroke-width="3"
           stroke-linecap="butt"
           stroke-opacity="1"
           stroke="#000000"
           stroke-linejoin="miter"
           d="m 1340.185,855.295 1.015,1.288 1.772,2.596 1.595,2.713 1.417,2.833 1.239,2.95 1.061,3.068 0.883,3.186 0.706,3.303 0.528,3.421 0.351,3.538 0.173,3.656 v 3.772 l -0.859,9.946 -2.071,9.046 -3.282,8.149 -4.491,7.254 -5.697,6.361 -6.903,5.469 -8.107,4.58 -9.309,3.692 -9.662,2.579 -0.85,0.227 -9.868,1.618 -1.845,0.302 -9.968,0.8 -2.946,0.237 -9.999,0.109 -4.115,0.045 -9.985,-0.54 -2.226,-0.12 -9.92,-1.263 -1.815,-0.231 -9.793,-2.023 -1.469,-0.303 -9.596,-2.811 -1.193,-0.349 -9.326,-3.609 -0.995,-0.385 -8.98,-4.401 -0.874,-0.428 -8.562,-5.166 -0.826,-0.498 -8.082,-5.888 -0.842,-0.613 -7.554,-6.553 -0.907,-0.787 -6.992,-7.149 -1.009,-1.032 -6.412,-7.673 -1.128,-1.35 -5.829,-8.125 -1.252,-1.744 -5.613,-8.277 -5.612,-8.276 -5.613,-8.276 -5.613,-8.277 -5.612,-8.276 -5.613,-8.276 -5.325,-7.853 0.326,-9.994 0.325,-9.995 0.326,-9.995 0.154,-4.713"
           id="path207" />
        <path
           fill="none"
           stroke-width="3"
           stroke-linecap="butt"
           stroke-opacity="1"
           stroke="#000000"
           stroke-linejoin="miter"
           d="m 608.542,136.112 -10,-0.007 -3.836,-0.003 -9.594,2.821 -9.594,2.82 -9.594,2.821 -9.594,2.82 -9.594,2.821 -9.594,2.82 -9.594,2.821 -9.594,2.82 -9.594,2.821 -9.594,2.82 -9.594,2.82 -9.594,2.821 -9.594,2.82 -9.594,2.821 -9.594,2.82 -9.594,2.821 -9.594,2.82 -9.594,2.821 -9.594,2.82 -9.594,2.82 -9.594,2.821 -9.594,2.82 -6.851,2.015 0.347,9.993 0.137,3.951 8.06,5.918 8.06,5.919 8.061,5.919 8.06,5.919 8.061,5.918 8.06,5.919 8.06,5.919 8.061,5.918 8.06,5.919 1.906,1.4 0.304,9.995 0.303,9.995 0.304,9.996 0.303,9.995 0.304,9.995 0.303,9.996 0.304,9.995 0.304,9.996 0.303,9.995 0.304,9.995 0.303,9.996 0.304,9.995 0.303,9.996 0.304,9.995 0.304,9.995 0.303,9.996 0.304,9.995 0.303,9.996 0.304,9.995 0.303,9.995 0.304,9.996 0.304,9.995 0.303,9.996 0.304,9.995 0.303,9.995 0.304,9.996 0.303,9.995 0.304,9.995 0.304,9.996 0.303,9.995 0.304,9.996 0.303,9.995 0.304,9.995 0.303,9.996 0.304,9.995 0.304,9.996 0.303,9.995 0.304,9.995 0.303,9.996 0.304,9.995 0.303,9.996 0.304,9.995 0.303,9.995 0.304,9.996 0.304,9.995 0.303,9.996 0.304,9.995 0.303,9.995 0.304,9.996 0.303,9.995 0.304,9.995 0.304,9.996 0.303,9.995 0.304,9.996 0.303,9.995 0.304,9.995 0.303,9.996 0.304,9.995 0.304,9.996 0.303,9.995 0.304,9.995 0.303,9.996 0.286,9.391"
           id="path209" />
        <path
           fill="none"
           stroke-width="3"
           stroke-linecap="butt"
           stroke-opacity="1"
           stroke="#000000"
           stroke-linejoin="miter"
           d="m 620.151,693.295 -0.209,-9.998 -0.208,-9.998 -0.208,-9.998 -0.209,-9.998 -0.208,-9.997 -0.208,-9.998 -0.208,-9.998 -0.209,-9.998 -0.208,-9.998 -0.208,-9.998 -0.209,-9.997 -0.208,-9.998 -0.208,-9.998 -0.209,-9.998 -0.208,-9.998 -0.208,-9.998 -0.209,-9.997 -0.208,-9.998 -0.208,-9.998 -0.209,-9.998 -0.208,-9.998 -0.208,-9.997 -0.208,-9.998 -0.209,-9.998 -0.208,-9.998 -0.208,-9.998 -0.209,-9.998 -0.208,-9.997 -0.208,-9.998 -0.209,-9.998 -0.208,-9.998 -0.208,-9.998 -0.209,-9.998 -0.208,-9.997 -0.208,-9.998 -0.208,-9.998 -0.209,-9.998 -0.208,-9.998 -0.208,-9.998 -0.209,-9.997 -0.208,-9.998 -0.208,-9.998 -0.209,-9.998 -0.208,-9.998 -0.208,-9.998 -0.209,-9.997 -0.208,-9.998 -0.208,-9.998 -0.208,-9.998 -0.209,-9.998 -0.208,-9.998 -0.208,-9.997 -0.209,-9.998 -0.208,-9.998 -0.208,-9.998 -0.152,-7.302 9.985,-0.537 9.986,-0.536 5.77,-0.31"
           id="path211" />
        <path
           fill="none"
           stroke-width="3"
           stroke-linecap="butt"
           stroke-opacity="1"
           stroke="#000000"
           stroke-linejoin="miter"
           d="m 972.359,478.654 -10,-0.086 -10,-0.086 -9.999,-0.086 -10,-0.087 -10,-0.086 -9.999,-0.086 -10,-0.086 -9.999,-0.087 -10,-0.086 -10,-0.086 -9.999,-0.087 -10,-0.086 -10,-0.086 -9.999,-0.086 -10,-0.087 -9.999,-0.086 -10,-0.086 -10,-0.086 -9.999,-0.087 -10,-0.086 -10,-0.086 -9.999,-0.087 -10,-0.086 -12.286,-0.106"
           id="path213" />
        <path
           fill="none"
           stroke-width="3"
           stroke-linecap="butt"
           stroke-opacity="1"
           stroke="#000000"
           stroke-linejoin="miter"
           d="m 770.205,635.399 7.917,-6.11 7.916,-6.109 7.917,-6.11 7.917,-6.109 7.916,-6.109 7.917,-6.11 7.917,-6.11 7.916,-6.109 7.917,-6.11 7.917,-6.109 7.916,-6.11 7.917,-6.109 7.917,-6.11 7.916,-6.109 7.917,-6.11 7.917,-6.109 2.271,-1.753 8.825,-4.702 8.825,-4.703 8.825,-4.703 8.825,-4.703 8.825,-4.703 8.825,-4.703 8.826,-4.703 8.825,-4.703 2.601,-1.386 3.757,-9.267 3.757,-9.268 0.171,-0.421 0.012,-10 0.009,-7.361 -10,-0.082 -9.999,-0.082 -10,-0.082 -10,-0.082 -9.999,-0.082 -10,-0.082 -10,-0.082 -9.999,-0.083 -10,-0.082 -10,-0.082 -9.999,-0.082 -10,-0.082 -10,-0.082 -9.999,-0.082 -10,-0.082 -10,-0.082 -9.999,-0.082 -10,-0.082 -10,-0.082 -9.999,-0.082 -10,-0.082 -10,-0.082 -10.565,-0.087 -7.354,6.776 -7.353,6.777 -4.705,4.335 0.139,9.999 0.113,8.131 8.061,5.918 8.061,5.918 8.06,5.918 8.061,5.918 8.061,5.918 8.061,5.918 7.758,5.696 0.009,0.841"
           id="path215" />
        <path
           fill="none"
           stroke-width="3"
           stroke-linecap="butt"
           stroke-opacity="1"
           stroke="#000000"
           stroke-linejoin="miter"
           d="m 972.345,496.885 0.007,-10 0.007,-8.231 3.913,-9.202 3.779,-8.884"
           id="path217" />
        <path
           fill="none"
           stroke-width="3"
           stroke-linecap="butt"
           stroke-opacity="1"
           stroke="#000000"
           stroke-linejoin="miter"
           d="m 746.042,654.046 7.917,-6.11 7.917,-6.109 7.916,-6.11 0.413,-0.318"
           id="path219" />
        <path
           fill="none"
           stroke-width="3"
           stroke-linecap="butt"
           stroke-opacity="1"
           stroke="#000000"
           stroke-linejoin="miter"
           d="m 786.465,536.739 0.062,5.923 -7.413,6.711 -7.413,6.712 -7.413,6.712 -7.413,6.711 -7.413,6.712 -7.413,6.711 -7.414,6.712 -7.413,6.712 -7.413,6.711 -7.413,6.712 -7.413,6.712 -7.413,6.711 -7.413,6.712 -7.413,6.711 -7.413,6.712 -7.413,6.712 -7.414,6.711 -7.413,6.712 -7.413,6.712 -7.413,6.711 -7.413,6.712 -7.413,6.712 -3.288,2.977 6.568,-7.54 6.569,-7.54 6.569,-7.54 4.671,-5.362"
           id="path221" />
        <path
           fill="none"
           stroke-width="3"
           stroke-linecap="butt"
           stroke-opacity="1"
           stroke="#000000"
           stroke-linejoin="miter"
           d="m 1024.483,966.804 -8.828,-4.698 -8.828,-4.697 -8.828,-4.698 -8.828,-4.697 -8.828,-4.698 -8.828,-4.698 -8.828,-4.697 -8.828,-4.698 -0.834,-0.444 -6.018,-7.987 -6.017,-7.987 -6.017,-7.987 -6.018,-7.987 -6.017,-7.987 -6.017,-7.987 -6.018,-7.987 -6.017,-7.987 -6.017,-7.987 -6.018,-7.987 -6.017,-7.987 -6.017,-7.987 -6.018,-7.986 -6.017,-7.987 -6.017,-7.987 -6.018,-7.987 -6.017,-7.987 -6.017,-7.987 -6.018,-7.987 -6.017,-7.987 -6.017,-7.987 -6.018,-7.987 -6.017,-7.987 -6.017,-7.987 -6.018,-7.987 -6.017,-7.987 -6.017,-7.987 -6.018,-7.987 -6.017,-7.987 -6.017,-7.987 -6.018,-7.987 -6.017,-7.987 -6.017,-7.987 -6.018,-7.987 -2.393,-3.176"
           id="path223" />
        <path
           fill="none"
           stroke-width="3"
           stroke-linecap="butt"
           stroke-opacity="1"
           stroke="#000000"
           stroke-linejoin="miter"
           d="m 624.993,925.72 -0.208,-9.998 -0.208,-9.998 -0.209,-9.998 -0.208,-9.998 -0.208,-9.998 -0.209,-9.997 -0.208,-9.998 -0.208,-9.998 -0.209,-9.998 -0.208,-9.998 -0.208,-9.998 -0.208,-9.997 -0.209,-9.998 -0.208,-9.998 -0.208,-9.998 -0.209,-9.998 -0.208,-9.998 -0.208,-9.997 -0.209,-9.998 -0.208,-9.998 -0.172,-8.265 5.947,8.04 5.947,8.039 5.947,8.04 5.947,8.039 1.759,2.378"
           id="path225" />
        <path
           fill="none"
           stroke-width="3"
           stroke-linecap="butt"
           stroke-opacity="1"
           stroke="#000000"
           stroke-linejoin="miter"
           d="m 646.202,752.034 5.947,8.039 5.947,8.039 5.947,8.04 5.947,8.039 5.947,8.04 5.947,8.039 5.947,8.04 5.947,8.039 5.947,8.039 5.948,8.04 5.947,8.039 5.947,8.04 5.947,8.039 5.947,8.04 5.947,8.039 5.947,8.04 5.947,8.039 5.947,8.039 5.947,8.04 5.947,8.039 5.947,8.04 1.719,2.323 5.262,8.504 5.262,8.503 5.262,8.504 5.262,8.504 5.262,8.503 5.262,8.504 3.326,5.375 9.998,0.204 9.998,0.203 9.998,0.204 9.998,0.204 9.998,0.203 9.998,0.204 9.998,0.204 9.997,0.203 9.998,0.204 9.998,0.204 9.998,0.203 9.998,0.204 9.998,0.203 9.998,0.204 9.998,0.204 9.998,0.203 9.998,0.204 9.998,0.204 9.998,0.203 9.998,0.204 9.998,0.204 6.75,0.137 1.196,-9.928 1.197,-9.928 1.196,-9.928 1.196,-9.929 0.223,-1.844 0.043,-10 0.028,-6.418 -8.827,-4.7 -8.827,-4.701 -8.826,-4.7 -8.827,-4.7 -8.826,-4.7 -8.827,-4.7 -8.827,-4.7 -6.273,-3.341 -6.009,-7.993 -6.009,-7.994 -6.009,-7.993 -6.009,-7.993 -6.009,-7.994 -6.009,-7.993 -6.008,-7.993 -6.009,-7.994 -6.009,-7.993 -6.009,-7.993 -6.009,-7.994 -6.009,-7.993 -6.009,-7.993 -6.009,-7.993 -6.009,-7.994 -6.009,-7.993 -6.009,-7.993 -6.008,-7.994 -6.009,-7.993 -6.009,-7.993 -6.009,-7.994 -6.009,-7.993 -6.009,-7.993 -6.009,-7.994 -6.009,-7.993 -6.009,-7.993 -6.009,-7.993 -6.009,-7.994 -6.008,-7.993 -6.009,-7.993 -6.009,-7.994 -4.952,-6.587"
           id="path227" />
        <path
           fill="none"
           stroke-width="3"
           stroke-linecap="butt"
           stroke-opacity="1"
           stroke="#000000"
           stroke-linejoin="miter"
           d="m 470.827,897.884 0.303,9.995 0.304,9.996 0.116,3.833 -9.105,4.134 -9.106,4.135 -9.105,4.134 -9.106,4.134 -9.105,4.134 -9.106,4.134 -9.105,4.134 -8.107,3.681"
           id="path229" />
        <path
           fill="none"
           stroke-width="3"
           stroke-linecap="butt"
           stroke-opacity="1"
           stroke="#000000"
           stroke-linejoin="miter"
           d="m 697.141,960.267 -9.02,-4.319 -9.019,-4.318 -9.019,-4.319 -9.019,-4.319 -9.02,-4.319 -9.019,-4.319 -9.019,-4.319 -9.013,-4.315 5.255,-8.509 5.255,-8.508 5.254,-8.508 5.255,-8.508 2.799,-4.532"
           id="path231" />
        <path
           fill="none"
           stroke-width="3"
           stroke-linecap="butt"
           stroke-opacity="1"
           stroke="#000000"
           stroke-linejoin="miter"
           d="m 470.827,897.884 -9.101,4.144 -9.102,4.143 -9.101,4.144 -9.101,4.144 -0.515,0.235 -6.533,7.571 -6.533,7.57 -6.533,7.571 -6.534,7.571 -6.533,7.571 -1.536,1.78 0.349,9.994 0.243,6.962 9.998,0.203 9.998,0.204 9.998,0.204 9.998,0.203 9.998,0.204 9.998,0.204 9.998,0.203 9.997,0.204 9.998,0.203 9.998,0.204 9.998,0.204 9.998,0.203 9.998,0.204 9.998,0.204 9.998,0.203 9.998,0.204 9.998,0.204 9.998,0.203 9.998,0.204 9.998,0.204 9.997,0.203 9.998,0.204 9.998,0.204 9.998,0.203 9.998,0.204 9.998,0.203 9.998,0.204 9.998,0.204 9.998,0.203 7.183,0.147 4.455,-8.953 4.455,-8.953 4.455,-8.953 4.455,-8.953 2.554,-5.131 -0.151,-9.999 -0.095,-6.306 -9.019,-4.321 -9.018,-4.321 -9.018,-4.32 -9.019,-4.321 -9.018,-4.321 -9.018,-4.321 -9.019,-4.321 -5.608,-2.687 -0.193,-9.998 -0.193,-9.998 -0.193,-9.998 -0.193,-9.999 -0.193,-9.998 -0.193,-9.998 -0.194,-9.998 -0.193,-9.998 -0.193,-9.998 -0.193,-9.998 -0.193,-9.999 -0.193,-9.998 -0.193,-9.998 -0.099,-5.145"
           id="path233" />
        <path
           fill="none"
           stroke-width="3"
           stroke-linecap="butt"
           stroke-opacity="1"
           stroke="#000000"
           stroke-linejoin="miter"
           d="m 697.42,977.336 -0.163,-9.999 -0.116,-7.07 4.528,-8.916 4.529,-8.915 4.528,-8.916 4.528,-8.916 2.294,-4.516"
           id="path235" />
        <path
           fill="none"
           stroke-width="3"
           stroke-linecap="butt"
           stroke-opacity="1"
           stroke="#000000"
           stroke-linejoin="miter"
           d="m 1024.414,983.996 0.04,-10 0.029,-7.192 1.219,-9.925 1.219,-9.926 1.22,-9.925 1.219,-9.926 0.133,-1.081"
           id="path237" />
        <path
           fill="none"
           stroke-width="3"
           stroke-linecap="butt"
           stroke-opacity="1"
           stroke="#000000"
           stroke-linejoin="miter"
           d="m 1454.424,767.3 -4.417,-8.973 -4.416,-8.972 -4.416,-8.972 -2.498,-5.075 -2.814,-5.189 -3.106,-4.892 -3.325,-4.657 -3.468,-4.484 -3.612,-4.31 -3.757,-4.136 -3.899,-3.962 -4.043,-3.787 -4.187,-3.612 -4.33,-3.437 -4.473,-3.261 -4.616,-3.086 -4.758,-2.911 -4.902,-2.735 -4.977,-2.621 -4.987,-2.57 -4.996,-2.517 -5.005,-2.467 -5.015,-2.414 -5.024,-2.363 -5.032,-2.311 -5.042,-2.259 -5.051,-2.208 -5.06,-2.155 -5.069,-2.104 -5.077,-2.052 -7.298,-2.915 -7.009,-2.853 -6.721,-2.79 -6.432,-2.727 -6.144,-2.663 -5.856,-2.601 -5.568,-2.538 -5.28,-2.475 -4.991,-2.412 -4.704,-2.349 -4.415,-2.287 -4.127,-2.223 -3.881,-2.195 -3.675,-2.199 -3.469,-2.205 -3.265,-2.211 -3.058,-2.215 -2.854,-2.221 -2.648,-2.227 -2.442,-2.232 -2.238,-2.237 -2.032,-2.243 -1.826,-2.248 -1.621,-2.254 -1.453,-2.297 -1.323,-2.378 -1.192,-2.46 -0.602,-1.442"
           id="path239" />
        <path
           fill="none"
           stroke-width="3"
           stroke-linecap="butt"
           stroke-opacity="1"
           stroke="#000000"
           stroke-linejoin="miter"
           d="m 786.465,536.739 -7.412,6.714 -7.411,6.713 -7.411,6.714 -7.412,6.714 -7.411,6.713 -7.411,6.714 -7.412,6.713 -7.411,6.714 -7.411,6.713 -7.412,6.714 -7.411,6.714 -7.411,6.713 -7.412,6.714 -7.411,6.713 -7.412,6.714 -7.411,6.713 -7.411,6.714 -7.412,6.713 -8.532,7.73 -0.194,-9.998 -0.193,-9.998 -0.193,-9.998 -0.193,-9.999 -0.193,-9.998 -0.193,-9.998 -0.193,-9.998 -0.193,-9.998 -0.193,-9.998 -0.193,-9.998 -0.193,-9.999 -0.193,-9.998 -0.193,-9.998 -0.193,-9.998 -0.193,-9.998 -0.193,-9.998 -0.193,-9.998 -0.193,-9.999 -0.193,-9.998 -0.193,-9.998 -0.193,-9.998 -0.193,-9.998 -0.193,-9.998 -0.193,-9.998 -0.194,-9.998 -0.193,-9.999 -0.193,-9.998 -0.193,-9.998 -0.193,-9.998 -0.193,-9.998 -0.193,-9.998 -0.193,-9.998 -0.193,-9.999 -0.193,-9.998 -0.193,-9.998 -0.193,-9.998 -0.193,-9.998 -0.193,-9.998 -0.193,-9.998 -0.193,-9.999 -0.193,-9.998 -0.193,-9.998 -0.193,-9.998 -0.193,-9.998 -0.193,-9.998 -0.193,-9.998 -0.193,-9.998 -0.193,-9.999 -0.193,-9.998 -0.194,-9.998 -0.193,-9.998 -0.193,-9.998 -0.206,-10.681 -10,-0.007 -3.16,-0.002 -9.987,0.523 -9.986,0.522 -6.444,0.337"
           id="path241" />
      </g>
    </g>
    <path
       style="font-variation-settings:'wght' 700;fill:#f5b748;fill-opacity:1;stroke-width:0.457627;stroke-linecap:round;stroke-miterlimit:10"
       d="m 894.62006,978.18831 -84.70201,-1.34826 -12.65579,-22.51411 C 781.48705,926.26255 625.6017,714.54319 618.93808,712.13077 c -3.36002,-1.21642 -3.95096,10.19863 -1.89526,36.61017 1.64289,21.10773 3.02659,70.2972 3.07488,109.30991 l 0.0878,70.9322 36.54979,16.81583 c 20.10238,9.24869 36.54978,19.03047 36.54978,21.73729 0,5.76605 -58.62841,6.33397 -195.63559,1.89494 -62.06705,-2.01095 -92.66785,-4.65164 -92.6645,-7.99644 0.003,-2.74672 15.44766,-11.9372 34.32204,-20.4233 l 34.31703,-15.42931 v -34.97498 c 0,-84.75808 -18.77384,-625.13582 -21.80527,-627.63288 -1.85032,-1.52416 -18.37981,-13.69595 -36.7322,-27.04843 -18.35239,-13.35248 -32.65769,-26.40809 -31.78957,-29.01246 1.5849,-4.7547 217.29424,-70.22657 220.2509,-66.85032 0.86764,0.99078 4.07827,125.36074 7.13473,276.37769 3.05646,151.01695 6.93262,276.01075 8.61371,277.76405 4.65529,4.8552 170.12823,-146.81251 169.84368,-155.67382 -0.13568,-4.2259 -12.49162,-16.41533 -27.45762,-27.08763 -34.24558,-24.42062 -36.38734,-35.72476 -5.97897,-31.55683 11.67756,1.60059 64.19028,2.91016 116.69491,2.91016 73.32193,0 95.46193,1.32674 95.45846,5.72034 -0.002,3.14619 -16.328,14.53214 -36.27894,25.30212 -34.73614,18.75136 -183.91068,129.39452 -187.29573,138.91774 -0.89652,2.52216 44.38338,65.55046 100.62202,140.06282 104.24828,138.12188 112.74806,147.10478 158.87524,167.90522 26.4084,11.90851 25.1273,21.1977 -2.7401,19.86852 -11.95551,-0.5702 -59.85319,-1.64352 -106.43926,-2.38506 z"
       id="path548" />
    <path
       style="font-variation-settings:'wght' 700;fill:#f5b748;fill-opacity:1;stroke-width:0.176116;stroke-linecap:round;stroke-miterlimit:10"
       d="m 1283.8646,251.40769 c -21.5978,-7.68264 -40.9889,-25.1999 -50.6172,-45.72572 -4.725,-10.07287 -5.6123,-14.03273 -5.6383,-25.1628 -0.034,-14.61028 2.5534,-21.39966 11.9156,-31.26491 6.2426,-6.57806 21.194,-12.76416 30.8502,-12.76416 18.1921,0 40.0126,9.78526 54.9655,24.64896 22.2287,22.09603 29.9838,50.11452 19.3802,70.01917 -5.1318,9.63307 -9.2281,13.8419 -17.8911,18.38234 -10.3677,5.43395 -30.4806,6.30799 -42.9649,1.86712 z"
       id="path1173" />
    <path
       style="font-variation-settings:'wght' 700;fill:#f5b747;fill-opacity:1;stroke-width:0.176116;stroke-linecap:round;stroke-miterlimit:10"
       d="m 1233.6944,995.77284 c -46.053,-3.96751 -99.9164,-18.61051 -135.8036,-36.91879 l -6.8505,-3.49491 v -60.72431 -60.72432 h 6.9485 6.9485 l 23.4315,34.67282 c 13.1213,19.41625 28.1789,39.42553 34.2205,45.47406 27.7982,27.82988 58.5453,39.61218 103.372,39.61218 45.0717,0 68.6672,-10.14775 80.7746,-34.73893 5.3722,-10.91125 5.8365,-13.19074 5.8305,-28.62466 -0.01,-20.89487 -4.0685,-31.11412 -17.3452,-43.65511 -14.7395,-13.9228 -35.4442,-24.73729 -104.1685,-54.40938 -74.8458,-32.31508 -108.9988,-61.54103 -123.4536,-105.64368 -4.7399,-14.46164 -5.1064,-17.51448 -5.0437,-42.01228 0.073,-28.68726 1.9897,-38.91742 11.4694,-61.23136 19.0151,-44.75929 61.955,-82.44303 113.6941,-99.77723 57.7237,-19.33921 142.8062,-12.30976 207.4277,17.13754 l 13.8884,6.32877 -1.158,47.63719 c -0.6369,26.20045 -1.6453,55.76055 -2.2408,65.6891 l -1.0829,18.05192 h -6.5878 -6.5878 l -20.0296,-31.22281 c -37.2111,-58.00582 -54.2794,-74.54104 -87.029,-84.31082 -14.5027,-4.3264 -45.2181,-4.2562 -60.3966,0.13804 -13.2848,3.84597 -29.7386,14.05477 -36.1047,22.40121 -9.565,12.54029 -12.4433,21.99921 -12.4884,41.04008 -0.035,14.77861 0.6286,19.1103 4.1254,26.92822 9.3156,20.82766 35.9134,37.92443 100.5366,64.62385 43.8756,18.12745 79.4725,35.79128 93.4463,46.36968 37.7821,28.60178 52.5539,61.95557 50.4551,113.92451 -1.0714,26.52871 -4.1722,40.10931 -13.7484,60.21459 -24.6278,51.7059 -84.1534,89.34351 -153.9287,97.32794 -17.9348,2.0523 -38.0449,2.02557 -62.5213,-0.0831 z"
       id="path1175" />
    <path
       style="font-variation-settings:'wght' 700;fill:#f5b747;fill-opacity:1;stroke-width:0.176116;stroke-linecap:round;stroke-miterlimit:10"
       d="m 1016.1268,501.25257 c 0.5796,-1.82631 4.4858,-15.27062 8.6803,-29.87624 4.1945,-14.60564 8.8336,-28.36747 10.3091,-30.58185 2.4322,-3.65028 175.3823,-207.69813 179.5575,-211.84334 1.1851,-1.17657 2.4441,-0.66003 3.793,1.55616 9.2113,15.13424 26.4173,30.90874 39.4815,36.19659 3.1689,1.28262 6.1696,2.9922 6.6682,3.79906 0.8018,1.29734 -177.2623,197.50248 -187.8714,207.01161 -3.7563,3.36688 -56.4308,27.05854 -60.1602,27.05854 -0.8315,0 -1.0376,-1.49424 -0.458,-3.32053 z"
       id="path1315" />
    <path
       style="font-variation-settings:'wght' 700;fill:#c1800b;fill-opacity:1;stroke-width:0.176116;stroke-linecap:round;stroke-miterlimit:10"
       d="m 1274.3854,267.65587 c -22.7321,-6.36296 -43.8689,-23.94956 -53.6063,-44.60242 -7.7633,-16.46588 -8.5615,-34.27369 -2.1038,-46.93719 l 4.4905,-8.80581 -0.8902,7.29499 c -5.2064,42.66569 42.6354,88.37318 88.635,84.68078 10.6479,-0.85471 11.3462,-0.70717 8.1611,1.72444 -10.6231,8.10989 -29.4509,10.90974 -44.6863,6.64521 z"
       id="path1317" />
    <path
       style="font-variation-settings:'wght' 700;fill:#c1800b;fill-opacity:1;stroke-width:0.176116;stroke-linecap:round;stroke-miterlimit:10"
       d="m 1108.6982,579.02242 c -0.1065,-4.96768 9.4949,-26.90167 17.1579,-39.19642 22.8857,-36.71858 65.0691,-66.7375 110.4801,-78.62073 23.8637,-6.2447 69.2412,-7.80566 99.5057,-3.42292 34.8618,5.04852 65.0584,13.9527 89.4836,26.3864 7.6415,3.88993 20.37,15.24427 14.425,12.86765 -1.453,-0.58085 -8.5094,-3.49773 -15.6809,-6.48196 -18.4771,-7.68881 -39.0751,-13.37242 -64.9576,-17.92375 -29.8565,-5.25016 -83.0147,-5.72814 -106.668,-0.95912 -42.8789,8.64528 -80.0876,28.73854 -108.6583,58.67717 -14.8373,15.54769 -20.0044,22.50963 -28.2883,38.11422 -3.714,6.99639 -6.7737,11.74815 -6.7992,10.55946 z"
       id="path1323" />
    <path
       style="font-variation-settings:'wght' 700;fill:#c1800b;fill-opacity:1;stroke-width:0.176116;stroke-linecap:round;stroke-miterlimit:10"
       d="m 1428.1745,729.79862 c -12.539,-13.25646 -48.5414,-32.64889 -100.2579,-54.00325 -54.4154,-22.4688 -73.9508,-32.56327 -89.4623,-46.22769 -7.5021,-6.60875 -17.088,-21.36444 -17.088,-26.30378 0,-0.99691 4.9533,2.19447 11.0073,7.09195 12.3527,9.99295 48.4842,28.35957 83.2149,42.30034 65.5239,26.30108 94.4392,44.53321 112.7174,71.07234 7.6424,11.09652 7.5749,14.2173 -0.1314,6.07009 z"
       id="path1325" />
    <path
       style="font-variation-settings:'wght' 700;fill:#c1800b;fill-opacity:1;stroke-width:0.176116;stroke-linecap:round;stroke-miterlimit:10"
       d="m 1242.7252,948.36501 c -6.1724,-0.86557 -16.4752,-3.26442 -22.8951,-5.33077 -34.7821,-11.19521 -54.5914,-28.98108 -88.8257,-79.75264 l -22.3525,-33.15019 v -11.31917 c 0,-6.22554 0.6368,-11.31917 1.4151,-11.31917 0.7783,0 10.4039,13.19197 21.3902,29.31548 21.3075,31.27078 33.562,44.9626 49.9695,55.83015 22.3148,14.78033 43.8775,20.44834 77.9632,20.49355 47.639,0.0632 73.1119,-13.38205 80.6428,-42.56534 l 2.415,-9.35838 2.8612,9.56576 c 6.2304,20.83056 2.3979,41.92979 -10.1518,55.88808 -13.1893,14.66962 -31.2613,21.16158 -62.6028,22.4886 -10.2336,0.4333 -23.6567,0.0796 -29.8291,-0.78596 z"
       id="path1327" />
    <path
       style="font-variation-settings:'wght' 700;fill:#c1800b;fill-opacity:1;stroke-width:0.0553457;stroke-linecap:round;stroke-miterlimit:10"
       d="m 1096.2155,829.49626 -5.1645,-0.18323 0.2985,-2.0541 c 0.1641,-1.12975 0.5968,-8.0937 0.9614,-15.47543 l 0.6629,-13.42134 h 6.3351 6.3351 l -0.3658,14.25152 c -0.4421,17.22466 -0.4574,17.33321 -2.4201,17.18068 -0.813,-0.0632 -3.8021,-0.19732 -6.6426,-0.2981 z"
       id="path1331" />
    <path
       style="font-variation-settings:'wght' 700;fill:#c1800b;fill-opacity:1;stroke-width:0.0553457;stroke-linecap:round;stroke-miterlimit:10"
       d="M 988.46096,945.51932 954.16039,927.25745 851.77079,791.31887 C 795.4565,716.55265 749.38118,655.03696 749.38118,654.61734 c 0,-0.41963 4.60248,-4.32533 10.22774,-8.67935 l 10.22773,-7.9164 7.52994,10.01957 c 4.14146,5.51076 46.93752,62.44581 95.10234,126.52233 l 87.57242,116.50276 33.5877,17.91145 c 18.47325,9.8513 33.66775,17.98417 33.76565,18.07305 0.1934,0.17566 -4.2388,36.33613 -4.4838,36.58109 -0.082,0.0821 -15.5846,-8.06849 -34.44994,-18.11252 z"
       id="path1333" />
    <path
       style="font-variation-settings:'wght' 700;fill:#c1800b;fill-opacity:1;stroke-width:0.0521831;stroke-linecap:round;stroke-miterlimit:10"
       d="m 699.04357,965.12695 -0.008,-4.43556 8.27253,-16.43769 8.27254,-16.43768 0.389,3.63116 0.389,3.63116 -8.65321,17.24209 -8.65321,17.24209 z"
       id="path1337" />
    <path
       style="font-variation-settings:'wght' 700;fill:#c1800b;fill-opacity:1;stroke-width:0.0521831;stroke-linecap:round;stroke-miterlimit:10"
       d="m 662.08457,941.48368 c -18.72109,-8.95225 -34.04337,-16.47244 -34.04949,-16.71153 -0.006,-0.23909 4.82573,-8.27413 10.73745,-17.85565 l 10.74858,-17.42093 2.42766,1.2018 c 1.33521,0.661 16.09436,7.73551 32.79811,15.72115 l 30.37045,14.51934 -9.18288,18.05036 c -5.05058,9.92769 -9.32432,18.21278 -9.4972,18.41131 -0.17288,0.19853 -15.63158,-6.9636 -34.35268,-15.91585 z"
       id="path1339" />
    <path
       style="font-variation-settings:'wght' 700;fill:#c1800b;fill-opacity:1;stroke-width:0.153787;stroke-linecap:round;stroke-miterlimit:10"
       d="m 626.68465,904.22302 c 0.002,-7.58919 -0.74456,-47.01643 -1.65972,-87.61609 -0.91515,-40.59967 -1.43607,-77.50173 -1.15759,-82.00458 l 0.50632,-8.187 9.71248,13.37578 9.71248,13.37578 1.45322,66.24998 1.45321,66.24998 -7.97746,13.14388 c -13.06933,21.53335 -12.0477,21.07422 -12.04294,5.41227 z"
       id="path1341" />
    <path
       style="font-variation-settings:'wght' 700;fill:#c1800b;fill-opacity:1;stroke-width:0.153787;stroke-linecap:round;stroke-miterlimit:10"
       d="m 622.05197,678.91299 c -0.008,-4.62184 -2.42363,-122.24389 -5.36764,-261.38233 -2.94402,-139.13844 -5.35946,-259.03433 -5.36765,-266.43531 l -0.0149,-13.45633 h 10.41674 10.41674 l 5.03967,263.15089 5.03967,263.15089 -8.02702,9.43588 c -13.1847,15.49882 -12.11883,15.01256 -12.13562,5.53631 z"
       id="path1343" />
    <path
       style="font-variation-settings:'wght' 700;fill:#c1800b;fill-opacity:1;stroke-width:0.153787;stroke-linecap:round;stroke-miterlimit:10"
       d="m 783.62964,474.81659 -46.81808,-0.43087 6.62006,-6.74535 6.62005,-6.74534 112.47773,0.8193 c 61.86277,0.45062 112.75903,1.06717 113.10284,1.37013 0.3438,0.30295 -0.62635,3.32604 -2.15589,6.71797 l -2.781,6.16714 -70.12381,-0.36105 c -38.5681,-0.19859 -91.19196,-0.55495 -116.9419,-0.79193 z"
       id="path1345" />
    <path
       style="font-variation-settings:'wght' 700;fill:#c1800b;fill-opacity:1;stroke-width:0.153787;stroke-linecap:round;stroke-miterlimit:10"
       d="m 422.72333,931.48441 c 12.71183,-14.68014 13.46409,-15.25809 28.91965,-22.21852 l 15.86833,-7.14632 1.1327,8.65474 c 0.62298,4.76011 0.969,8.81653 0.76893,9.01428 -0.58694,0.58012 -58.41507,26.76802 -59.10916,26.76802 -0.34747,0 5.24133,-6.78248 12.41955,-15.0722 z"
       id="path1347" />
    <path
       style="font-variation-settings:'wght' 700;fill:#c1800b;fill-opacity:1;stroke-width:0.0438604;stroke-linecap:round;stroke-miterlimit:10"
       d="m 643.21234,669.64965 c 0,-0.73586 7.7295,-7.81643 71.7117,-65.69114 35.94358,-32.51254 66.38816,-60.1161 67.65462,-61.34124 1.3978,-1.35219 2.30267,-1.96261 2.30267,-1.55336 0,0.3708 -27.58269,25.64678 -61.29486,56.16885 -33.71218,30.52207 -65.58771,59.38371 -70.8345,64.13696 -5.2468,4.75325 -9.53963,8.47922 -9.53963,8.27993 z"
       id="path1351" />
  </g>
</svg>
