<?xml version="1.0" encoding="UTF-8" standalone="no"?>
<svg
   version="1.1"
   width="1167.9822"
   height="1167.9822"
   id="svg241"
   sodipodi:docname="favicon.svg"
   inkscape:version="1.2.2 (b0a8486, 2022-12-01)"
   xmlns:inkscape="http://www.inkscape.org/namespaces/inkscape"
   xmlns:sodipodi="http://sodipodi.sourceforge.net/DTD/sodipodi-0.dtd"
   xmlns="http://www.w3.org/2000/svg"
   xmlns:svg="http://www.w3.org/2000/svg">
  <sodipodi:namedview
     id="namedview214"
     pagecolor="#ffffff"
     bordercolor="#666666"
     borderopacity="1.0"
     inkscape:showpageshadow="2"
     inkscape:pageopacity="0.0"
     inkscape:pagecheckerboard="0"
     inkscape:deskcolor="#d1d1d1"
     showgrid="false"
     inkscape:zoom="0.70459539"
     inkscape:cx="395.97193"
     inkscape:cy="585.44237"
     inkscape:current-layer="svg241" />
  <defs
     id="defs245" />
  <rect
     style="font-variation-settings:'wght' 700;fill:#192b4e;fill-opacity:1;stroke-width:0.1;stroke-linecap:round;stroke-miterlimit:10"
     id="rect6336"
     width="1167.9822"
     height="1167.9822"
     x="0"
     y="0" />
  <g
     id="g7241"
     transform="translate(-337.98141,17.710589)">
    <g
       id="ViewLayer_LineSet">
      <g
         id="strokes">
        <path
           fill="none"
           stroke-width="3"
           stroke-linecap="butt"
           stroke-opacity="1"
           stroke="#000000"
           stroke-linejoin="round"
           d="m 1289.641,151.474 -6.671,-6.215 -7.495,-5.14 -8.039,-3.872 -8.283,-2.456 -8.216,-0.944 -7.839,0.61 -7.163,2.145 -6.211,3.608 -5.016,4.939 -6.312,7.756 -6.313,7.756 -0.363,0.447 -3.61,6.055 -2.082,6.964 -0.466,7.606 1.175,7.955 2.776,7.992 0.127,0.229 4.147,7.488 5.607,7.135 6.719,6.272 7.568,5.161 8.117,3.848 4.752,1.358 3.593,1.027 8.246,0.832 7.824,-0.747 7.098,-2.291 6.102,-3.739 4.875,-5.035 6.655,-7.464 6.655,-7.464 0.39,-0.438 3.477,-6.165 1.931,-7.03 0.317,-7.625 -1.3,-7.929 -2.862,-7.932 -4.312,-7.638 -5.598,-7.059"
           id="path139" />
        <path
           fill="none"
           stroke-width="3"
           stroke-linecap="butt"
           stroke-opacity="1"
           stroke="#000000"
           stroke-linejoin="round"
           d="m 1297.988,202.852 -4.899,5.057 -6.139,3.75 -7.148,2.289 -7.883,0.732 -8.312,-0.859 -3.624,-1.043 -4.793,-1.38 -1.507,-0.717 -6.683,-3.178 -7.64,-5.217 -6.788,-6.334 -5.669,-7.2 -0.896,-1.611 -3.303,-5.94 -0.128,-0.23 -2.818,-8.056 -1.204,-8.013 0.451,-7.658 2.081,-7.007 3.622,-6.088"
           id="path141" />
        <path
           fill="none"
           stroke-width="3"
           stroke-linecap="butt"
           stroke-opacity="1"
           stroke="#000000"
           stroke-linejoin="round"
           d="m 989.905,492.414 0.03,-0.003 -0.069,0.054 0.014,-0.01 -0.074,0.039 0.002,-0.022 -0.072,0.025 -0.005,-0.038 -0.066,0.013 -0.006,-0.053 -0.054,0.006 -10e-4,-0.067 -0.039,0.003 0.01,-0.077 -0.024,0.007 0.024,-0.082 -0.011,0.017 0.041,-0.081 -10e-4,0.029"
           id="path143" />
        <path
           fill="none"
           stroke-width="3"
           stroke-linecap="butt"
           stroke-opacity="1"
           stroke="#000000"
           stroke-linejoin="round"
           d="m 1209.64,196.909 -6.395,7.688 -6.394,7.689 -6.395,7.688 -6.394,7.688 -6.394,7.689 -6.395,7.688 -6.394,7.689 -6.395,7.688 -6.394,7.688 -6.395,7.689 -6.394,7.688 -6.394,7.688 -6.395,7.689 -6.394,7.688 -6.395,7.689 -6.394,7.688 -6.394,7.688 -6.395,7.689 -6.394,7.688 -6.395,7.689 -6.394,7.688 -6.395,7.688 -6.394,7.689 -6.394,7.688 -6.395,7.689 -6.394,7.688 -6.395,7.688 -6.394,7.689 -6.394,7.688 -5.314,6.389 -1.752,2.895 -4.005,9.162 -4.006,9.163 -4.006,9.163 -4.005,9.162 -4.006,9.163 -4.005,9.163 -3.539,8.094 -0.013,0.065 0.014,0.07 0.04,0.064 0.06,0.047 0.071,0.025 0.07,-0.003 0.06,-0.029 8.403,-5.42 8.404,-5.42 8.404,-5.42 8.403,-5.421 8.404,-5.42 8.404,-5.42 8.58,-5.534 2.347,-2.419 6.576,-7.534 6.575,-7.535 6.575,-7.534 6.576,-7.534 6.575,-7.534 6.575,-7.534 6.576,-7.535 6.575,-7.534 6.576,-7.534 6.575,-7.534 6.575,-7.535 6.576,-7.534 6.575,-7.534 6.575,-7.534 6.576,-7.535 6.575,-7.534 6.575,-7.534 6.576,-7.534 6.575,-7.535 6.575,-7.534 6.576,-7.534 6.575,-7.534 6.575,-7.535 6.576,-7.534 6.575,-7.534 6.575,-7.534 6.576,-7.535 6.575,-7.534 6.575,-7.534 4.65,-5.327"
           id="path145" />
        <path
           fill="none"
           stroke-width="3"
           stroke-linecap="butt"
           stroke-opacity="1"
           stroke="#000000"
           stroke-linejoin="round"
           d="m 1451.639,505.826 -5.986,-3.05 -6.015,-2.907 -6.045,-2.764 -6.073,-2.62 -6.101,-2.477 -6.131,-2.332 -6.158,-2.189 -6.186,-2.046 -6.215,-1.901 -6.242,-1.758 -6.27,-1.614 -6.297,-1.47 -6.324,-1.341 -6.351,-1.23 -6.376,-1.118 -6.402,-1.006 -6.429,-0.894 -6.454,-0.783 -6.479,-0.67 -6.505,-0.558 -6.53,-0.447 -6.555,-0.335 -6.58,-0.222 -6.605,-0.112 -9.456,0.089 -9.297,0.426 -9.137,0.762 -8.976,1.098 -8.815,1.434 -8.654,1.77 -8.493,2.105 -8.331,2.439 -8.17,2.774 -8.007,3.107 -7.845,3.441 -7.682,3.773 -7.466,4.05 -7.198,4.272 -6.928,4.492 -6.661,4.713 -6.391,4.934 -6.124,5.152 -5.856,5.373 -5.588,5.591 -5.321,5.809 -5.054,6.028 -4.787,6.245 -4.521,6.462 -4.205,6.633 -3.844,6.755 -3.481,6.878 -3.119,7.001 -2.759,7.123 -2.398,7.246 -2.038,7.367 -1.679,7.49 -1.32,7.611 -0.962,7.733 -0.603,7.855 -0.247,7.976 0.142,8.478 0.574,8.243 1.003,8.007 1.433,7.772 1.862,7.539 2.29,7.306 2.719,7.074 3.147,6.843 3.575,6.612 4.002,6.383 4.43,6.153 4.858,5.926 5.301,5.751 5.758,5.632 6.217,5.514 6.676,5.395 7.133,5.278 7.592,5.159 8.051,5.043 8.51,4.925 8.814,4.725 0.156,0.084 8.953,4.455 0.476,0.237 9.076,4.2 0.814,0.377 9.183,3.957 1.167,0.503 7.978,3.395 7.685,3.298 7.394,3.201 7.102,3.104 6.809,3.008 6.518,2.91 6.226,2.814 5.934,2.717 5.642,2.62 5.35,2.523 5.058,2.427 4.765,2.33 4.513,2.287 4.298,2.298 4.082,2.311 3.868,2.321 3.652,2.333 3.438,2.345 3.222,2.356 3.008,2.367 2.792,2.379 2.577,2.389 2.362,2.401 2.147,2.412 0.936,1.189"
           id="path147" />
        <path
           fill="none"
           stroke-width="3"
           stroke-linecap="butt"
           stroke-opacity="1"
           stroke="#000000"
           stroke-linejoin="round"
           d="m 1216.928,586.711 -0.01,-1.072 0.227,-5.003 0.52,-4.812 0.816,-4.624 1.11,-4.434 1.405,-4.244 1.7,-4.054 1.995,-3.864 2.291,-3.673 2.587,-3.483 2.883,-3.291 3.179,-3.101 3.476,-2.909 3.715,-2.695 3.898,-2.457 4.082,-2.218 4.265,-1.979 4.447,-1.741 4.631,-1.502 4.814,-1.263 4.996,-1.023 5.18,-0.784 5.362,-0.544 5.546,-0.304 5.728,-0.065 5.365,0.163 5.232,0.383 5.099,0.605 4.966,0.827 4.832,1.047 4.699,1.269 4.564,1.49 4.429,1.711 4.295,1.932 4.161,2.153 4.025,2.374 3.89,2.595 3.811,2.823 3.789,3.061 3.766,3.298 3.743,3.535 3.72,3.772 3.696,4.008 3.674,4.244 3.65,4.48 3.626,4.716 3.602,4.95 3.579,5.186 3.554,5.419 5.416,8.407 5.416,8.406 5.416,8.407 5.415,8.407 5.416,8.406 5.416,8.407 2.108,3.273 10,0.123 7.449,0.091 0.298,-9.995 0.298,-9.996 0.298,-9.996 0.297,-9.995 0.298,-9.996 0.298,-9.995 0.298,-9.996 0.298,-9.995 0.298,-9.996 0.298,-9.995 0.297,-9.996 0.298,-9.996 0.298,-9.995 0.172,-5.772 -6.288,-7.775 -6.289,-7.776 -3.269,-4.042 -5.692,-2.901 -5.72,-2.764 -5.747,-2.628 -5.774,-2.491 -5.801,-2.355 -5.828,-2.218 -5.855,-2.081 -5.881,-1.944 -5.908,-1.807 -5.934,-1.671 -5.961,-1.533 -5.986,-1.396 -6.012,-1.275 -6.036,-1.168 -6.062,-1.061 -6.086,-0.955 -6.111,-0.849 -6.135,-0.742 -6.159,-0.635 -6.184,-0.529 -6.207,-0.422 -6.232,-0.316 -6.255,-0.21 -6.278,-0.103 -8.99,0.088 -8.838,0.409 -8.685,0.729 -8.534,1.049 -8.38,1.369 -8.227,1.688 -8.074,2.007 -7.92,2.326 -7.767,2.644 -7.613,2.961 -7.459,3.279 -7.304,3.596 -7.099,3.859 -6.844,4.07 -6.588,4.281 -6.334,4.49 -6.078,4.7 -5.824,4.91 -5.569,5.118 -5.315,5.327 -5.06,5.536 -4.807,5.743 -4.554,5.95 -4.3,6.158 -4.001,6.319 -3.656,6.437 -3.312,6.554 -2.968,6.671 -2.625,6.787 -2.281,6.905 -1.94,7.021 -1.598,7.137 -1.257,7.253 -0.915,7.37 -0.576,7.485 -0.582,9.983 -0.582,9.983 -0.329,5.642"
           id="path149" />
        <path
           fill="none"
           stroke-width="3"
           stroke-linecap="butt"
           stroke-opacity="1"
           stroke="#000000"
           stroke-linejoin="round"
           d="m 1217.811,598.539 -0.428,-3.096 -0.291,-3.182 -0.154,-3.268 -0.01,-2.282"
           id="path151" />
        <path
           fill="none"
           stroke-width="3"
           stroke-linecap="butt"
           stroke-opacity="1"
           stroke="#000000"
           stroke-linejoin="round"
           d="m 1340.185,855.295 -0.697,8.153 -1.966,8.634 -3.119,7.78 -4.27,6.926 -5.419,6.076 -6.567,5.226 -7.714,4.379 -8.86,3.532 -9.658,2.595 -0.347,0.093 -9.866,1.632 -1.284,0.212 -9.967,0.812 -2.326,0.19 -10,0.119 -3.437,0.041 -9.986,-0.532 -1.641,-0.087 -9.921,-1.256 -1.252,-0.159 -9.794,-2.019 -0.929,-0.191 -9.597,-2.809 -0.677,-0.198 -9.326,-3.608 -0.502,-0.195 -8.979,-4.402 -0.404,-0.198 -8.56,-5.169 -0.38,-0.229 -8.079,-5.892 -0.419,-0.305 -7.55,-6.557 -0.508,-0.441 -6.986,-7.155 -0.632,-0.646 -6.406,-7.679 -0.774,-0.927 -5.823,-8.129 -0.92,-1.284 -5.606,-8.28 -5.606,-8.281 -5.607,-8.281 -5.606,-8.28 -5.607,-8.281 -5.606,-8.28 -3.494,-5.161 -9.999,-0.16 -6.16,-0.098 -0.56,9.984 -0.56,9.984 -0.56,9.985 -0.265,4.717 -0.08,10 -0.08,10 -0.08,9.999 -0.08,10 -0.08,10 -0.08,10 -0.08,9.999 -0.08,10 -0.08,10 -0.08,9.999 -0.08,10 -0.08,10 -0.049,6.107 6.534,3.129 6.558,3.017 6.582,2.905 6.605,2.793 6.631,2.681 6.655,2.57 6.679,2.458 6.705,2.346 6.729,2.235 6.754,2.122 6.78,2.012 6.805,1.9 6.917,1.775 7.115,1.637 7.313,1.5 7.512,1.362 7.712,1.224 7.91,1.086 8.111,0.948 8.311,0.811 8.512,0.673 8.712,0.535 8.915,0.397 9.116,0.259 8.427,0.039 8.349,-0.232 8.272,-0.504 8.195,-0.776 8.118,-1.047 8.042,-1.319 7.967,-1.592 7.891,-1.865 7.815,-2.138 7.74,-2.411 7.666,-2.685 7.591,-2.96 7.446,-3.22 7.228,-3.468 7.011,-3.717 6.795,-3.965 6.577,-4.214 6.36,-4.464 6.143,-4.714 5.926,-4.964 5.708,-5.215 5.49,-5.467 5.272,-5.718 5.055,-5.971 4.752,-6.203 4.366,-6.413 3.978,-6.626 3.591,-6.837 3.203,-7.049 2.813,-7.261 2.424,-7.475 2.034,-7.688 1.643,-7.902 1.253,-8.116 0.86,-8.33 0.468,-8.546 0.118,-8.503 -0.187,-8.201 -0.493,-7.899 -0.8,-7.595 -1.107,-7.291 -1.414,-6.985 -1.722,-6.679 -2.029,-6.372 -2.337,-6.063 -2.645,-5.754 -2.954,-5.445 -3.261,-5.135 -3.491,-4.888 -3.642,-4.707 -3.794,-4.524 -3.946,-4.342 -4.096,-4.159 -4.248,-3.976 -4.398,-3.793 -4.55,-3.609 -4.7,-3.426 -4.851,-3.241 -5.001,-3.058 -5.151,-2.873 -5.232,-2.754 -5.241,-2.699 -5.251,-2.646 -5.261,-2.591 -5.27,-2.538 -5.281,-2.482 -5.289,-2.429 -5.3,-2.374 -5.309,-2.32 -5.318,-2.265 -5.328,-2.212 -5.337,-2.156 -7.671,-3.065 -7.367,-2.998 -7.064,-2.932 -6.762,-2.866 -6.458,-2.8 -6.155,-2.733 -5.853,-2.667 -5.549,-2.601 -5.246,-2.535 -4.944,-2.468 -4.641,-2.402 -4.338,-2.336 -4.079,-2.306 -3.862,-2.311 -3.647,-2.317 -3.431,-2.322 -3.215,-2.327 -2.999,-2.333 -2.783,-2.338 -2.567,-2.344 -2.351,-2.349 -2.136,-2.356 -1.919,-2.36 -1.704,-2.367 -1.527,-2.412 -1.39,-2.497 -1.252,-2.583 -1.115,-2.667 -0.978,-2.754 -0.841,-2.838 -0.703,-2.925 -0.566,-3.01"
           id="path153" />
        <path
           fill="none"
           stroke-width="3"
           stroke-linecap="butt"
           stroke-opacity="1"
           stroke="#000000"
           stroke-linejoin="round"
           d="m 1106.38,831.481 -9.999,-0.167 -6.974,-0.118"
           id="path155" />
        <path
           fill="none"
           stroke-width="3"
           stroke-linecap="butt"
           stroke-opacity="1"
           stroke="#000000"
           stroke-linejoin="round"
           d="m 1340.185,855.295 1.015,1.288 1.772,2.596 1.595,2.713 1.417,2.833 1.239,2.95 1.061,3.068 0.883,3.186 0.706,3.303 0.528,3.421 0.351,3.538 0.173,3.656 v 3.772 l -0.859,9.946 -2.071,9.046 -3.282,8.149 -4.491,7.254 -5.697,6.361 -6.903,5.469 -8.107,4.58 -9.309,3.692 -9.662,2.579 -0.85,0.227 -9.868,1.618 -1.845,0.302 -9.968,0.8 -2.946,0.237 -9.999,0.109 -4.115,0.045 -9.985,-0.54 -2.226,-0.12 -9.92,-1.263 -1.815,-0.231 -9.793,-2.023 -1.469,-0.303 -9.596,-2.811 -1.193,-0.349 -9.326,-3.609 -0.995,-0.385 -8.98,-4.401 -0.874,-0.428 -8.562,-5.166 -0.826,-0.498 -8.082,-5.888 -0.842,-0.613 -7.554,-6.553 -0.907,-0.787 -6.992,-7.149 -1.009,-1.032 -6.412,-7.673 -1.128,-1.35 -5.829,-8.125 -1.252,-1.744 -5.613,-8.277 -5.612,-8.276 -5.613,-8.276 -5.613,-8.277 -5.612,-8.276 -5.613,-8.276 -5.325,-7.853 0.326,-9.994 0.325,-9.995 0.326,-9.995 0.154,-4.713"
           id="path157" />
        <path
           fill="none"
           stroke-width="3"
           stroke-linecap="butt"
           stroke-opacity="1"
           stroke="#000000"
           stroke-linejoin="round"
           d="m 608.542,136.112 -10,-0.007 -3.836,-0.003 -9.594,2.821 -9.594,2.82 -9.594,2.821 -9.594,2.82 -9.594,2.821 -9.594,2.82 -9.594,2.821 -9.594,2.82 -9.594,2.821 -9.594,2.82 -9.594,2.82 -9.594,2.821 -9.594,2.82 -9.594,2.821 -9.594,2.82 -9.594,2.821 -9.594,2.82 -9.594,2.821 -9.594,2.82 -9.594,2.82 -9.594,2.821 -9.594,2.82 -6.851,2.015 0.347,9.993 0.137,3.951 8.06,5.918 8.06,5.919 8.061,5.919 8.06,5.919 8.061,5.918 8.06,5.919 8.06,5.919 8.061,5.918 8.06,5.919 1.906,1.4 0.304,9.995 0.303,9.995 0.304,9.996 0.303,9.995 0.304,9.995 0.303,9.996 0.304,9.995 0.304,9.996 0.303,9.995 0.304,9.995 0.303,9.996 0.304,9.995 0.303,9.996 0.304,9.995 0.304,9.995 0.303,9.996 0.304,9.995 0.303,9.996 0.304,9.995 0.303,9.995 0.304,9.996 0.304,9.995 0.303,9.996 0.304,9.995 0.303,9.995 0.304,9.996 0.303,9.995 0.304,9.995 0.304,9.996 0.303,9.995 0.304,9.996 0.303,9.995 0.304,9.995 0.303,9.996 0.304,9.995 0.304,9.996 0.303,9.995 0.304,9.995 0.303,9.996 0.304,9.995 0.303,9.996 0.304,9.995 0.303,9.995 0.304,9.996 0.304,9.995 0.303,9.996 0.304,9.995 0.303,9.995 0.304,9.996 0.303,9.995 0.304,9.995 0.304,9.996 0.303,9.995 0.304,9.996 0.303,9.995 0.304,9.995 0.303,9.996 0.304,9.995 0.304,9.996 0.303,9.995 0.304,9.995 0.303,9.996 0.286,9.391"
           id="path159" />
        <path
           fill="none"
           stroke-width="3"
           stroke-linecap="butt"
           stroke-opacity="1"
           stroke="#000000"
           stroke-linejoin="round"
           d="m 620.151,693.295 -0.209,-9.998 -0.208,-9.998 -0.208,-9.998 -0.209,-9.998 -0.208,-9.997 -0.208,-9.998 -0.208,-9.998 -0.209,-9.998 -0.208,-9.998 -0.208,-9.998 -0.209,-9.997 -0.208,-9.998 -0.208,-9.998 -0.209,-9.998 -0.208,-9.998 -0.208,-9.998 -0.209,-9.997 -0.208,-9.998 -0.208,-9.998 -0.209,-9.998 -0.208,-9.998 -0.208,-9.997 -0.208,-9.998 -0.209,-9.998 -0.208,-9.998 -0.208,-9.998 -0.209,-9.998 -0.208,-9.997 -0.208,-9.998 -0.209,-9.998 -0.208,-9.998 -0.208,-9.998 -0.209,-9.998 -0.208,-9.997 -0.208,-9.998 -0.208,-9.998 -0.209,-9.998 -0.208,-9.998 -0.208,-9.998 -0.209,-9.997 -0.208,-9.998 -0.208,-9.998 -0.209,-9.998 -0.208,-9.998 -0.208,-9.998 -0.209,-9.997 -0.208,-9.998 -0.208,-9.998 -0.208,-9.998 -0.209,-9.998 -0.208,-9.998 -0.208,-9.997 -0.209,-9.998 -0.208,-9.998 -0.208,-9.998 -0.152,-7.302 9.985,-0.537 9.986,-0.536 5.77,-0.31"
           id="path161" />
        <path
           fill="none"
           stroke-width="3"
           stroke-linecap="butt"
           stroke-opacity="1"
           stroke="#000000"
           stroke-linejoin="round"
           d="m 972.359,478.654 -10,-0.086 -10,-0.086 -9.999,-0.086 -10,-0.087 -10,-0.086 -9.999,-0.086 -10,-0.086 -9.999,-0.087 -10,-0.086 -10,-0.086 -9.999,-0.087 -10,-0.086 -10,-0.086 -9.999,-0.086 -10,-0.087 -9.999,-0.086 -10,-0.086 -10,-0.086 -9.999,-0.087 -10,-0.086 -10,-0.086 -9.999,-0.087 -10,-0.086 -12.286,-0.106"
           id="path163" />
        <path
           fill="none"
           stroke-width="3"
           stroke-linecap="butt"
           stroke-opacity="1"
           stroke="#000000"
           stroke-linejoin="round"
           d="m 770.205,635.399 7.917,-6.11 7.916,-6.109 7.917,-6.11 7.917,-6.109 7.916,-6.109 7.917,-6.11 7.917,-6.11 7.916,-6.109 7.917,-6.11 7.917,-6.109 7.916,-6.11 7.917,-6.109 7.917,-6.11 7.916,-6.109 7.917,-6.11 7.917,-6.109 2.271,-1.753 8.825,-4.702 8.825,-4.703 8.825,-4.703 8.825,-4.703 8.825,-4.703 8.825,-4.703 8.826,-4.703 8.825,-4.703 2.601,-1.386 3.757,-9.267 3.757,-9.268 0.171,-0.421 0.012,-10 0.009,-7.361 -10,-0.082 -9.999,-0.082 -10,-0.082 -10,-0.082 -9.999,-0.082 -10,-0.082 -10,-0.082 -9.999,-0.083 -10,-0.082 -10,-0.082 -9.999,-0.082 -10,-0.082 -10,-0.082 -9.999,-0.082 -10,-0.082 -10,-0.082 -9.999,-0.082 -10,-0.082 -10,-0.082 -9.999,-0.082 -10,-0.082 -10,-0.082 -10.565,-0.087 -7.354,6.776 -7.353,6.777 -4.705,4.335 0.139,9.999 0.113,8.131 8.061,5.918 8.061,5.918 8.06,5.918 8.061,5.918 8.061,5.918 8.061,5.918 7.758,5.696 0.009,0.841"
           id="path165" />
        <path
           fill="none"
           stroke-width="3"
           stroke-linecap="butt"
           stroke-opacity="1"
           stroke="#000000"
           stroke-linejoin="round"
           d="m 972.345,496.885 0.007,-10 0.007,-8.231 3.913,-9.202 3.779,-8.884"
           id="path167" />
        <path
           fill="none"
           stroke-width="3"
           stroke-linecap="butt"
           stroke-opacity="1"
           stroke="#000000"
           stroke-linejoin="round"
           d="m 746.042,654.046 7.917,-6.11 7.917,-6.109 7.916,-6.11 0.413,-0.318"
           id="path169" />
        <path
           fill="none"
           stroke-width="3"
           stroke-linecap="butt"
           stroke-opacity="1"
           stroke="#000000"
           stroke-linejoin="round"
           d="m 786.465,536.739 0.062,5.923 -7.413,6.711 -7.413,6.712 -7.413,6.712 -7.413,6.711 -7.413,6.712 -7.413,6.711 -7.414,6.712 -7.413,6.712 -7.413,6.711 -7.413,6.712 -7.413,6.712 -7.413,6.711 -7.413,6.712 -7.413,6.711 -7.413,6.712 -7.413,6.712 -7.414,6.711 -7.413,6.712 -7.413,6.712 -7.413,6.711 -7.413,6.712 -7.413,6.712 -3.288,2.977 6.568,-7.54 6.569,-7.54 6.569,-7.54 4.671,-5.362"
           id="path171" />
        <path
           fill="none"
           stroke-width="3"
           stroke-linecap="butt"
           stroke-opacity="1"
           stroke="#000000"
           stroke-linejoin="round"
           d="m 1024.483,966.804 -8.828,-4.698 -8.828,-4.697 -8.828,-4.698 -8.828,-4.697 -8.828,-4.698 -8.828,-4.698 -8.828,-4.697 -8.828,-4.698 -0.834,-0.444 -6.018,-7.987 -6.017,-7.987 -6.017,-7.987 -6.018,-7.987 -6.017,-7.987 -6.017,-7.987 -6.018,-7.987 -6.017,-7.987 -6.017,-7.987 -6.018,-7.987 -6.017,-7.987 -6.017,-7.987 -6.018,-7.986 -6.017,-7.987 -6.017,-7.987 -6.018,-7.987 -6.017,-7.987 -6.017,-7.987 -6.018,-7.987 -6.017,-7.987 -6.017,-7.987 -6.018,-7.987 -6.017,-7.987 -6.017,-7.987 -6.018,-7.987 -6.017,-7.987 -6.017,-7.987 -6.018,-7.987 -6.017,-7.987 -6.017,-7.987 -6.018,-7.987 -6.017,-7.987 -6.017,-7.987 -6.018,-7.987 -2.393,-3.176"
           id="path173" />
        <path
           fill="none"
           stroke-width="3"
           stroke-linecap="butt"
           stroke-opacity="1"
           stroke="#000000"
           stroke-linejoin="round"
           d="m 624.993,925.72 -0.208,-9.998 -0.208,-9.998 -0.209,-9.998 -0.208,-9.998 -0.208,-9.998 -0.209,-9.997 -0.208,-9.998 -0.208,-9.998 -0.209,-9.998 -0.208,-9.998 -0.208,-9.998 -0.208,-9.997 -0.209,-9.998 -0.208,-9.998 -0.208,-9.998 -0.209,-9.998 -0.208,-9.998 -0.208,-9.997 -0.209,-9.998 -0.208,-9.998 -0.172,-8.265 5.947,8.04 5.947,8.039 5.947,8.04 5.947,8.039 1.759,2.378"
           id="path175" />
        <path
           fill="none"
           stroke-width="3"
           stroke-linecap="butt"
           stroke-opacity="1"
           stroke="#000000"
           stroke-linejoin="round"
           d="m 646.202,752.034 5.947,8.039 5.947,8.039 5.947,8.04 5.947,8.039 5.947,8.04 5.947,8.039 5.947,8.04 5.947,8.039 5.947,8.039 5.948,8.04 5.947,8.039 5.947,8.04 5.947,8.039 5.947,8.04 5.947,8.039 5.947,8.04 5.947,8.039 5.947,8.039 5.947,8.04 5.947,8.039 5.947,8.04 1.719,2.323 5.262,8.504 5.262,8.503 5.262,8.504 5.262,8.504 5.262,8.503 5.262,8.504 3.326,5.375 9.998,0.204 9.998,0.203 9.998,0.204 9.998,0.204 9.998,0.203 9.998,0.204 9.998,0.204 9.997,0.203 9.998,0.204 9.998,0.204 9.998,0.203 9.998,0.204 9.998,0.203 9.998,0.204 9.998,0.204 9.998,0.203 9.998,0.204 9.998,0.204 9.998,0.203 9.998,0.204 9.998,0.204 6.75,0.137 1.196,-9.928 1.197,-9.928 1.196,-9.928 1.196,-9.929 0.223,-1.844 0.043,-10 0.028,-6.418 -8.827,-4.7 -8.827,-4.701 -8.826,-4.7 -8.827,-4.7 -8.826,-4.7 -8.827,-4.7 -8.827,-4.7 -6.273,-3.341 -6.009,-7.993 -6.009,-7.994 -6.009,-7.993 -6.009,-7.993 -6.009,-7.994 -6.009,-7.993 -6.008,-7.993 -6.009,-7.994 -6.009,-7.993 -6.009,-7.993 -6.009,-7.994 -6.009,-7.993 -6.009,-7.993 -6.009,-7.993 -6.009,-7.994 -6.009,-7.993 -6.009,-7.993 -6.008,-7.994 -6.009,-7.993 -6.009,-7.993 -6.009,-7.994 -6.009,-7.993 -6.009,-7.993 -6.009,-7.994 -6.009,-7.993 -6.009,-7.993 -6.009,-7.993 -6.009,-7.994 -6.008,-7.993 -6.009,-7.993 -6.009,-7.994 -4.952,-6.587"
           id="path177" />
        <path
           fill="none"
           stroke-width="3"
           stroke-linecap="butt"
           stroke-opacity="1"
           stroke="#000000"
           stroke-linejoin="round"
           d="m 470.827,897.884 0.303,9.995 0.304,9.996 0.116,3.833 -9.105,4.134 -9.106,4.135 -9.105,4.134 -9.106,4.134 -9.105,4.134 -9.106,4.134 -9.105,4.134 -8.107,3.681"
           id="path179" />
        <path
           fill="none"
           stroke-width="3"
           stroke-linecap="butt"
           stroke-opacity="1"
           stroke="#000000"
           stroke-linejoin="round"
           d="m 697.141,960.267 -9.02,-4.319 -9.019,-4.318 -9.019,-4.319 -9.019,-4.319 -9.02,-4.319 -9.019,-4.319 -9.019,-4.319 -9.013,-4.315 5.255,-8.509 5.255,-8.508 5.254,-8.508 5.255,-8.508 2.799,-4.532"
           id="path181" />
        <path
           fill="none"
           stroke-width="3"
           stroke-linecap="butt"
           stroke-opacity="1"
           stroke="#000000"
           stroke-linejoin="round"
           d="m 470.827,897.884 -9.101,4.144 -9.102,4.143 -9.101,4.144 -9.101,4.144 -0.515,0.235 -6.533,7.571 -6.533,7.57 -6.533,7.571 -6.534,7.571 -6.533,7.571 -1.536,1.78 0.349,9.994 0.243,6.962 9.998,0.203 9.998,0.204 9.998,0.204 9.998,0.203 9.998,0.204 9.998,0.204 9.998,0.203 9.997,0.204 9.998,0.203 9.998,0.204 9.998,0.204 9.998,0.203 9.998,0.204 9.998,0.204 9.998,0.203 9.998,0.204 9.998,0.204 9.998,0.203 9.998,0.204 9.998,0.204 9.997,0.203 9.998,0.204 9.998,0.204 9.998,0.203 9.998,0.204 9.998,0.203 9.998,0.204 9.998,0.204 9.998,0.203 7.183,0.147 4.455,-8.953 4.455,-8.953 4.455,-8.953 4.455,-8.953 2.554,-5.131 -0.151,-9.999 -0.095,-6.306 -9.019,-4.321 -9.018,-4.321 -9.018,-4.32 -9.019,-4.321 -9.018,-4.321 -9.018,-4.321 -9.019,-4.321 -5.608,-2.687 -0.193,-9.998 -0.193,-9.998 -0.193,-9.998 -0.193,-9.999 -0.193,-9.998 -0.193,-9.998 -0.194,-9.998 -0.193,-9.998 -0.193,-9.998 -0.193,-9.998 -0.193,-9.999 -0.193,-9.998 -0.193,-9.998 -0.099,-5.145"
           id="path183" />
        <path
           fill="none"
           stroke-width="3"
           stroke-linecap="butt"
           stroke-opacity="1"
           stroke="#000000"
           stroke-linejoin="round"
           d="m 697.42,977.336 -0.163,-9.999 -0.116,-7.07 4.528,-8.916 4.529,-8.915 4.528,-8.916 4.528,-8.916 2.294,-4.516"
           id="path185" />
        <path
           fill="none"
           stroke-width="3"
           stroke-linecap="butt"
           stroke-opacity="1"
           stroke="#000000"
           stroke-linejoin="round"
           d="m 1024.414,983.996 0.04,-10 0.029,-7.192 1.219,-9.925 1.219,-9.926 1.22,-9.925 1.219,-9.926 0.133,-1.081"
           id="path187" />
        <path
           fill="none"
           stroke-width="3"
           stroke-linecap="butt"
           stroke-opacity="1"
           stroke="#000000"
           stroke-linejoin="round"
           d="m 1454.424,767.3 -4.417,-8.973 -4.416,-8.972 -4.416,-8.972 -2.498,-5.075 -2.814,-5.189 -3.106,-4.892 -3.325,-4.657 -3.468,-4.484 -3.612,-4.31 -3.757,-4.136 -3.899,-3.962 -4.043,-3.787 -4.187,-3.612 -4.33,-3.437 -4.473,-3.261 -4.616,-3.086 -4.758,-2.911 -4.902,-2.735 -4.977,-2.621 -4.987,-2.57 -4.996,-2.517 -5.005,-2.467 -5.015,-2.414 -5.024,-2.363 -5.032,-2.311 -5.042,-2.259 -5.051,-2.208 -5.06,-2.155 -5.069,-2.104 -5.077,-2.052 -7.298,-2.915 -7.009,-2.853 -6.721,-2.79 -6.432,-2.727 -6.144,-2.663 -5.856,-2.601 -5.568,-2.538 -5.28,-2.475 -4.991,-2.412 -4.704,-2.349 -4.415,-2.287 -4.127,-2.223 -3.881,-2.195 -3.675,-2.199 -3.469,-2.205 -3.265,-2.211 -3.058,-2.215 -2.854,-2.221 -2.648,-2.227 -2.442,-2.232 -2.238,-2.237 -2.032,-2.243 -1.826,-2.248 -1.621,-2.254 -1.453,-2.297 -1.323,-2.378 -1.192,-2.46 -0.602,-1.442"
           id="path189" />
        <path
           fill="none"
           stroke-width="3"
           stroke-linecap="butt"
           stroke-opacity="1"
           stroke="#000000"
           stroke-linejoin="round"
           d="m 786.465,536.739 -7.412,6.714 -7.411,6.713 -7.411,6.714 -7.412,6.714 -7.411,6.713 -7.411,6.714 -7.412,6.713 -7.411,6.714 -7.411,6.713 -7.412,6.714 -7.411,6.714 -7.411,6.713 -7.412,6.714 -7.411,6.713 -7.412,6.714 -7.411,6.713 -7.411,6.714 -7.412,6.713 -8.532,7.73 -0.194,-9.998 -0.193,-9.998 -0.193,-9.998 -0.193,-9.999 -0.193,-9.998 -0.193,-9.998 -0.193,-9.998 -0.193,-9.998 -0.193,-9.998 -0.193,-9.998 -0.193,-9.999 -0.193,-9.998 -0.193,-9.998 -0.193,-9.998 -0.193,-9.998 -0.193,-9.998 -0.193,-9.998 -0.193,-9.999 -0.193,-9.998 -0.193,-9.998 -0.193,-9.998 -0.193,-9.998 -0.193,-9.998 -0.193,-9.998 -0.194,-9.998 -0.193,-9.999 -0.193,-9.998 -0.193,-9.998 -0.193,-9.998 -0.193,-9.998 -0.193,-9.998 -0.193,-9.998 -0.193,-9.999 -0.193,-9.998 -0.193,-9.998 -0.193,-9.998 -0.193,-9.998 -0.193,-9.998 -0.193,-9.998 -0.193,-9.999 -0.193,-9.998 -0.193,-9.998 -0.193,-9.998 -0.193,-9.998 -0.193,-9.998 -0.193,-9.998 -0.193,-9.998 -0.193,-9.999 -0.193,-9.998 -0.194,-9.998 -0.193,-9.998 -0.193,-9.998 -0.206,-10.681 -10,-0.007 -3.16,-0.002 -9.987,0.523 -9.986,0.522 -6.444,0.337"
           id="path191" />
        <path
           fill="none"
           stroke-width="3"
           stroke-linecap="butt"
           stroke-opacity="1"
           stroke="#000000"
           stroke-linejoin="round"
           d="m 1451.639,505.826 -5.986,-3.05 -6.015,-2.907 -6.045,-2.764 -6.073,-2.62 -6.101,-2.477 -6.131,-2.332 -6.158,-2.189 -6.186,-2.046 -6.215,-1.901 -6.242,-1.758 -6.27,-1.614 -6.297,-1.47 -6.324,-1.341 -6.351,-1.23 -6.376,-1.118 -6.402,-1.006 -6.429,-0.894 -6.454,-0.783 -6.479,-0.67 -6.505,-0.558 -6.53,-0.447 -6.555,-0.335 -6.58,-0.222 -6.605,-0.112 -9.456,0.089 -9.297,0.426 -9.137,0.762 -8.976,1.098 -8.815,1.434 -8.654,1.77 -8.493,2.105 -8.331,2.439 -8.17,2.774 -8.007,3.107 -7.845,3.441 -7.682,3.773 -7.466,4.05 -7.198,4.272 -6.928,4.492 -6.661,4.713 -6.391,4.934 -6.124,5.152 -5.856,5.373 -5.588,5.591 -5.321,5.809 -5.054,6.028 -4.787,6.245 -4.521,6.462 -4.205,6.633 -3.844,6.755 -3.481,6.878 -3.119,7.001 -2.759,7.123 -2.398,7.246 -2.038,7.367 -1.679,7.49 -1.32,7.611 -0.962,7.733 -0.603,7.855 -0.247,7.976 0.142,8.478 0.574,8.243 1.003,8.007 1.433,7.772 1.862,7.539 2.29,7.306 2.719,7.074 3.147,6.843 3.575,6.612 4.002,6.383 4.43,6.153 4.858,5.926 5.301,5.751 5.758,5.632 6.217,5.514 6.676,5.395 7.133,5.278 7.592,5.159 8.051,5.043 8.51,4.925 8.814,4.725 0.156,0.084 8.953,4.455 0.476,0.237 9.076,4.2 0.814,0.377 9.183,3.957 1.167,0.503 7.978,3.395 7.685,3.298 7.394,3.201 7.102,3.104 6.809,3.008 6.518,2.91 6.226,2.814 5.934,2.717 5.642,2.62 5.35,2.523 5.058,2.427 4.765,2.33 4.513,2.287 4.298,2.298 4.082,2.311 3.868,2.321 3.652,2.333 3.438,2.345 3.222,2.356 3.008,2.367 2.792,2.379 2.577,2.389 2.362,2.401 2.147,2.412 0.936,1.189"
           id="path193" />
        <path
           fill="none"
           stroke-width="3"
           stroke-linecap="butt"
           stroke-opacity="1"
           stroke="#000000"
           stroke-linejoin="round"
           d="m 1216.928,586.711 -0.01,-1.072 0.227,-5.003 0.52,-4.812 0.816,-4.624 1.11,-4.434 1.405,-4.244 1.7,-4.054 1.995,-3.864 2.291,-3.673 2.587,-3.483 2.883,-3.291 3.179,-3.101 3.476,-2.909 3.715,-2.695 3.898,-2.457 4.082,-2.218 4.265,-1.979 4.447,-1.741 4.631,-1.502 4.814,-1.263 4.996,-1.023 5.18,-0.784 5.362,-0.544 5.546,-0.304 5.728,-0.065 5.365,0.163 5.232,0.383 5.099,0.605 4.966,0.827 4.832,1.047 4.699,1.269 4.564,1.49 4.429,1.711 4.295,1.932 4.161,2.153 4.025,2.374 3.89,2.595 3.811,2.823 3.789,3.061 3.766,3.298 3.743,3.535 3.72,3.772 3.696,4.008 3.674,4.244 3.65,4.48 3.626,4.716 3.602,4.95 3.579,5.186 3.554,5.419 5.416,8.407 5.416,8.406 5.416,8.407 5.415,8.407 5.416,8.406 5.416,8.407 2.108,3.273 10,0.123 7.449,0.091 0.298,-9.995 0.298,-9.996 0.298,-9.996 0.297,-9.995 0.298,-9.996 0.298,-9.995 0.298,-9.996 0.298,-9.995 0.298,-9.996 0.298,-9.995 0.297,-9.996 0.298,-9.996 0.298,-9.995 0.172,-5.772 -6.288,-7.775 -6.289,-7.776 -3.269,-4.042 -5.692,-2.901 -5.72,-2.764 -5.747,-2.628 -5.774,-2.491 -5.801,-2.355 -5.828,-2.218 -5.855,-2.081 -5.881,-1.944 -5.908,-1.807 -5.934,-1.671 -5.961,-1.533 -5.986,-1.396 -6.012,-1.275 -6.036,-1.168 -6.062,-1.061 -6.086,-0.955 -6.111,-0.849 -6.135,-0.742 -6.159,-0.635 -6.184,-0.529 -6.207,-0.422 -6.232,-0.316 -6.255,-0.21 -6.278,-0.103 -8.99,0.088 -8.838,0.409 -8.685,0.729 -8.534,1.049 -8.38,1.369 -8.227,1.688 -8.074,2.007 -7.92,2.326 -7.767,2.644 -7.613,2.961 -7.459,3.279 -7.304,3.596 -7.099,3.859 -6.844,4.07 -6.588,4.281 -6.334,4.49 -6.078,4.7 -5.824,4.91 -5.569,5.118 -5.315,5.327 -5.06,5.536 -4.807,5.743 -4.554,5.95 -4.3,6.158 -4.001,6.319 -3.656,6.437 -3.312,6.554 -2.968,6.671 -2.625,6.787 -2.281,6.905 -1.94,7.021 -1.598,7.137 -1.257,7.253 -0.915,7.37 -0.576,7.485 -0.582,9.983 -0.582,9.983 -0.329,5.642"
           id="path195" />
        <path
           fill="none"
           stroke-width="3"
           stroke-linecap="butt"
           stroke-opacity="1"
           stroke="#000000"
           stroke-linejoin="round"
           d="m 1217.811,598.539 -0.428,-3.096 -0.291,-3.182 -0.154,-3.268 -0.01,-2.282"
           id="path197" />
        <path
           fill="none"
           stroke-width="3"
           stroke-linecap="butt"
           stroke-opacity="1"
           stroke="#000000"
           stroke-linejoin="round"
           d="m 1340.185,855.295 -0.697,8.153 -1.966,8.634 -3.119,7.78 -4.27,6.926 -5.419,6.076 -6.567,5.226 -7.714,4.379 -8.86,3.532 -9.658,2.595 -0.347,0.093 -9.866,1.632 -1.284,0.212 -9.967,0.812 -2.326,0.19 -10,0.119 -3.437,0.041 -9.986,-0.532 -1.641,-0.087 -9.921,-1.256 -1.252,-0.159 -9.794,-2.019 -0.929,-0.191 -9.597,-2.809 -0.677,-0.198 -9.326,-3.608 -0.502,-0.195 -8.979,-4.402 -0.404,-0.198 -8.56,-5.169 -0.38,-0.229 -8.079,-5.892 -0.419,-0.305 -7.55,-6.557 -0.508,-0.441 -6.986,-7.155 -0.632,-0.646 -6.406,-7.679 -0.774,-0.927 -5.823,-8.129 -0.92,-1.284 -5.606,-8.28 -5.606,-8.281 -5.607,-8.281 -5.606,-8.28 -5.607,-8.281 -5.606,-8.28 -3.494,-5.161 -9.999,-0.16 -6.16,-0.098 -0.56,9.984 -0.56,9.984 -0.56,9.985 -0.265,4.717 -0.08,10 -0.08,10 -0.08,9.999 -0.08,10 -0.08,10 -0.08,10 -0.08,9.999 -0.08,10 -0.08,10 -0.08,9.999 -0.08,10 -0.08,10 -0.049,6.107 6.534,3.129 6.558,3.017 6.582,2.905 6.605,2.793 6.631,2.681 6.655,2.57 6.679,2.458 6.705,2.346 6.729,2.235 6.754,2.122 6.78,2.012 6.805,1.9 6.917,1.775 7.115,1.637 7.313,1.5 7.512,1.362 7.712,1.224 7.91,1.086 8.111,0.948 8.311,0.811 8.512,0.673 8.712,0.535 8.915,0.397 9.116,0.259 8.427,0.039 8.349,-0.232 8.272,-0.504 8.195,-0.776 8.118,-1.047 8.042,-1.319 7.967,-1.592 7.891,-1.865 7.815,-2.138 7.74,-2.411 7.666,-2.685 7.591,-2.96 7.446,-3.22 7.228,-3.468 7.011,-3.717 6.795,-3.965 6.577,-4.214 6.36,-4.464 6.143,-4.714 5.926,-4.964 5.708,-5.215 5.49,-5.467 5.272,-5.718 5.055,-5.971 4.752,-6.203 4.366,-6.413 3.978,-6.626 3.591,-6.837 3.203,-7.049 2.813,-7.261 2.424,-7.475 2.034,-7.688 1.643,-7.902 1.253,-8.116 0.86,-8.33 0.468,-8.546 0.118,-8.503 -0.187,-8.201 -0.493,-7.899 -0.8,-7.595 -1.107,-7.291 -1.414,-6.985 -1.722,-6.679 -2.029,-6.372 -2.337,-6.063 -2.645,-5.754 -2.954,-5.445 -3.261,-5.135 -3.491,-4.888 -3.642,-4.707 -3.794,-4.524 -3.946,-4.342 -4.096,-4.159 -4.248,-3.976 -4.398,-3.793 -4.55,-3.609 -4.7,-3.426 -4.851,-3.241 -5.001,-3.058 -5.151,-2.873 -5.232,-2.754 -5.241,-2.699 -5.251,-2.646 -5.261,-2.591 -5.27,-2.538 -5.281,-2.482 -5.289,-2.429 -5.3,-2.374 -5.309,-2.32 -5.318,-2.265 -5.328,-2.212 -5.337,-2.156 -7.671,-3.065 -7.367,-2.998 -7.064,-2.932 -6.762,-2.866 -6.458,-2.8 -6.155,-2.733 -5.853,-2.667 -5.549,-2.601 -5.246,-2.535 -4.944,-2.468 -4.641,-2.402 -4.338,-2.336 -4.079,-2.306 -3.862,-2.311 -3.647,-2.317 -3.431,-2.322 -3.215,-2.327 -2.999,-2.333 -2.783,-2.338 -2.567,-2.344 -2.351,-2.349 -2.136,-2.356 -1.919,-2.36 -1.704,-2.367 -1.527,-2.412 -1.39,-2.497 -1.252,-2.583 -1.115,-2.667 -0.978,-2.754 -0.841,-2.838 -0.703,-2.925 -0.566,-3.01"
           id="path199" />
        <path
           fill="none"
           stroke-width="3"
           stroke-linecap="butt"
           stroke-opacity="1"
           stroke="#000000"
           stroke-linejoin="round"
           d="m 1106.38,831.481 -9.999,-0.167 -6.974,-0.118"
           id="path201" />
        <path
           fill="none"
           stroke-width="3"
           stroke-linecap="butt"
           stroke-opacity="1"
           stroke="#000000"
           stroke-linejoin="round"
           d="m 1340.185,855.295 1.015,1.288 1.772,2.596 1.595,2.713 1.417,2.833 1.239,2.95 1.061,3.068 0.883,3.186 0.706,3.303 0.528,3.421 0.351,3.538 0.173,3.656 v 3.772 l -0.859,9.946 -2.071,9.046 -3.282,8.149 -4.491,7.254 -5.697,6.361 -6.903,5.469 -8.107,4.58 -9.309,3.692 -9.662,2.579 -0.85,0.227 -9.868,1.618 -1.845,0.302 -9.968,0.8 -2.946,0.237 -9.999,0.109 -4.115,0.045 -9.985,-0.54 -2.226,-0.12 -9.92,-1.263 -1.815,-0.231 -9.793,-2.023 -1.469,-0.303 -9.596,-2.811 -1.193,-0.349 -9.326,-3.609 -0.995,-0.385 -8.98,-4.401 -0.874,-0.428 -8.562,-5.166 -0.826,-0.498 -8.082,-5.888 -0.842,-0.613 -7.554,-6.553 -0.907,-0.787 -6.992,-7.149 -1.009,-1.032 -6.412,-7.673 -1.128,-1.35 -5.829,-8.125 -1.252,-1.744 -5.613,-8.277 -5.612,-8.276 -5.613,-8.276 -5.613,-8.277 -5.612,-8.276 -5.613,-8.276 -5.325,-7.853 0.326,-9.994 0.325,-9.995 0.326,-9.995 0.154,-4.713"
           id="path203" />
        <path
           fill="none"
           stroke-width="3"
           stroke-linecap="butt"
           stroke-opacity="1"
           stroke="#000000"
           stroke-linejoin="round"
           d="m 608.542,136.112 -10,-0.007 -3.836,-0.003 -9.594,2.821 -9.594,2.82 -9.594,2.821 -9.594,2.82 -9.594,2.821 -9.594,2.82 -9.594,2.821 -9.594,2.82 -9.594,2.821 -9.594,2.82 -9.594,2.82 -9.594,2.821 -9.594,2.82 -9.594,2.821 -9.594,2.82 -9.594,2.821 -9.594,2.82 -9.594,2.821 -9.594,2.82 -9.594,2.82 -9.594,2.821 -9.594,2.82 -6.851,2.015 0.347,9.993 0.137,3.951 8.06,5.918 8.06,5.919 8.061,5.919 8.06,5.919 8.061,5.918 8.06,5.919 8.06,5.919 8.061,5.918 8.06,5.919 1.906,1.4 0.304,9.995 0.303,9.995 0.304,9.996 0.303,9.995 0.304,9.995 0.303,9.996 0.304,9.995 0.304,9.996 0.303,9.995 0.304,9.995 0.303,9.996 0.304,9.995 0.303,9.996 0.304,9.995 0.304,9.995 0.303,9.996 0.304,9.995 0.303,9.996 0.304,9.995 0.303,9.995 0.304,9.996 0.304,9.995 0.303,9.996 0.304,9.995 0.303,9.995 0.304,9.996 0.303,9.995 0.304,9.995 0.304,9.996 0.303,9.995 0.304,9.996 0.303,9.995 0.304,9.995 0.303,9.996 0.304,9.995 0.304,9.996 0.303,9.995 0.304,9.995 0.303,9.996 0.304,9.995 0.303,9.996 0.304,9.995 0.303,9.995 0.304,9.996 0.304,9.995 0.303,9.996 0.304,9.995 0.303,9.995 0.304,9.996 0.303,9.995 0.304,9.995 0.304,9.996 0.303,9.995 0.304,9.996 0.303,9.995 0.304,9.995 0.303,9.996 0.304,9.995 0.304,9.996 0.303,9.995 0.304,9.995 0.303,9.996 0.286,9.391"
           id="path205" />
        <path
           fill="none"
           stroke-width="3"
           stroke-linecap="butt"
           stroke-opacity="1"
           stroke="#000000"
           stroke-linejoin="round"
           d="m 620.151,693.295 -0.209,-9.998 -0.208,-9.998 -0.208,-9.998 -0.209,-9.998 -0.208,-9.997 -0.208,-9.998 -0.208,-9.998 -0.209,-9.998 -0.208,-9.998 -0.208,-9.998 -0.209,-9.997 -0.208,-9.998 -0.208,-9.998 -0.209,-9.998 -0.208,-9.998 -0.208,-9.998 -0.209,-9.997 -0.208,-9.998 -0.208,-9.998 -0.209,-9.998 -0.208,-9.998 -0.208,-9.997 -0.208,-9.998 -0.209,-9.998 -0.208,-9.998 -0.208,-9.998 -0.209,-9.998 -0.208,-9.997 -0.208,-9.998 -0.209,-9.998 -0.208,-9.998 -0.208,-9.998 -0.209,-9.998 -0.208,-9.997 -0.208,-9.998 -0.208,-9.998 -0.209,-9.998 -0.208,-9.998 -0.208,-9.998 -0.209,-9.997 -0.208,-9.998 -0.208,-9.998 -0.209,-9.998 -0.208,-9.998 -0.208,-9.998 -0.209,-9.997 -0.208,-9.998 -0.208,-9.998 -0.208,-9.998 -0.209,-9.998 -0.208,-9.998 -0.208,-9.997 -0.209,-9.998 -0.208,-9.998 -0.208,-9.998 -0.152,-7.302 9.985,-0.537 9.986,-0.536 5.77,-0.31"
           id="path207" />
        <path
           fill="none"
           stroke-width="3"
           stroke-linecap="butt"
           stroke-opacity="1"
           stroke="#000000"
           stroke-linejoin="round"
           d="m 972.359,478.654 -10,-0.086 -10,-0.086 -9.999,-0.086 -10,-0.087 -10,-0.086 -9.999,-0.086 -10,-0.086 -9.999,-0.087 -10,-0.086 -10,-0.086 -9.999,-0.087 -10,-0.086 -10,-0.086 -9.999,-0.086 -10,-0.087 -9.999,-0.086 -10,-0.086 -10,-0.086 -9.999,-0.087 -10,-0.086 -10,-0.086 -9.999,-0.087 -10,-0.086 -12.286,-0.106"
           id="path209" />
        <path
           fill="none"
           stroke-width="3"
           stroke-linecap="butt"
           stroke-opacity="1"
           stroke="#000000"
           stroke-linejoin="round"
           d="m 770.205,635.399 7.917,-6.11 7.916,-6.109 7.917,-6.11 7.917,-6.109 7.916,-6.109 7.917,-6.11 7.917,-6.11 7.916,-6.109 7.917,-6.11 7.917,-6.109 7.916,-6.11 7.917,-6.109 7.917,-6.11 7.916,-6.109 7.917,-6.11 7.917,-6.109 2.271,-1.753 8.825,-4.702 8.825,-4.703 8.825,-4.703 8.825,-4.703 8.825,-4.703 8.825,-4.703 8.826,-4.703 8.825,-4.703 2.601,-1.386 3.757,-9.267 3.757,-9.268 0.171,-0.421 0.012,-10 0.009,-7.361 -10,-0.082 -9.999,-0.082 -10,-0.082 -10,-0.082 -9.999,-0.082 -10,-0.082 -10,-0.082 -9.999,-0.083 -10,-0.082 -10,-0.082 -9.999,-0.082 -10,-0.082 -10,-0.082 -9.999,-0.082 -10,-0.082 -10,-0.082 -9.999,-0.082 -10,-0.082 -10,-0.082 -9.999,-0.082 -10,-0.082 -10,-0.082 -10.565,-0.087 -7.354,6.776 -7.353,6.777 -4.705,4.335 0.139,9.999 0.113,8.131 8.061,5.918 8.061,5.918 8.06,5.918 8.061,5.918 8.061,5.918 8.061,5.918 7.758,5.696 0.009,0.841"
           id="path211" />
        <path
           fill="none"
           stroke-width="3"
           stroke-linecap="butt"
           stroke-opacity="1"
           stroke="#000000"
           stroke-linejoin="round"
           d="m 972.345,496.885 0.007,-10 0.007,-8.231 3.913,-9.202 3.779,-8.884"
           id="path213" />
        <path
           fill="none"
           stroke-width="3"
           stroke-linecap="butt"
           stroke-opacity="1"
           stroke="#000000"
           stroke-linejoin="round"
           d="m 746.042,654.046 7.917,-6.11 7.917,-6.109 7.916,-6.11 0.413,-0.318"
           id="path215" />
        <path
           fill="none"
           stroke-width="3"
           stroke-linecap="butt"
           stroke-opacity="1"
           stroke="#000000"
           stroke-linejoin="round"
           d="m 786.465,536.739 0.062,5.923 -7.413,6.711 -7.413,6.712 -7.413,6.712 -7.413,6.711 -7.413,6.712 -7.413,6.711 -7.414,6.712 -7.413,6.712 -7.413,6.711 -7.413,6.712 -7.413,6.712 -7.413,6.711 -7.413,6.712 -7.413,6.711 -7.413,6.712 -7.413,6.712 -7.414,6.711 -7.413,6.712 -7.413,6.712 -7.413,6.711 -7.413,6.712 -7.413,6.712 -3.288,2.977 6.568,-7.54 6.569,-7.54 6.569,-7.54 4.671,-5.362"
           id="path217" />
        <path
           fill="none"
           stroke-width="3"
           stroke-linecap="butt"
           stroke-opacity="1"
           stroke="#000000"
           stroke-linejoin="round"
           d="m 1024.483,966.804 -8.828,-4.698 -8.828,-4.697 -8.828,-4.698 -8.828,-4.697 -8.828,-4.698 -8.828,-4.698 -8.828,-4.697 -8.828,-4.698 -0.834,-0.444 -6.018,-7.987 -6.017,-7.987 -6.017,-7.987 -6.018,-7.987 -6.017,-7.987 -6.017,-7.987 -6.018,-7.987 -6.017,-7.987 -6.017,-7.987 -6.018,-7.987 -6.017,-7.987 -6.017,-7.987 -6.018,-7.986 -6.017,-7.987 -6.017,-7.987 -6.018,-7.987 -6.017,-7.987 -6.017,-7.987 -6.018,-7.987 -6.017,-7.987 -6.017,-7.987 -6.018,-7.987 -6.017,-7.987 -6.017,-7.987 -6.018,-7.987 -6.017,-7.987 -6.017,-7.987 -6.018,-7.987 -6.017,-7.987 -6.017,-7.987 -6.018,-7.987 -6.017,-7.987 -6.017,-7.987 -6.018,-7.987 -2.393,-3.176"
           id="path219" />
        <path
           fill="none"
           stroke-width="3"
           stroke-linecap="butt"
           stroke-opacity="1"
           stroke="#000000"
           stroke-linejoin="round"
           d="m 624.993,925.72 -0.208,-9.998 -0.208,-9.998 -0.209,-9.998 -0.208,-9.998 -0.208,-9.998 -0.209,-9.997 -0.208,-9.998 -0.208,-9.998 -0.209,-9.998 -0.208,-9.998 -0.208,-9.998 -0.208,-9.997 -0.209,-9.998 -0.208,-9.998 -0.208,-9.998 -0.209,-9.998 -0.208,-9.998 -0.208,-9.997 -0.209,-9.998 -0.208,-9.998 -0.172,-8.265 5.947,8.04 5.947,8.039 5.947,8.04 5.947,8.039 1.759,2.378"
           id="path221" />
        <path
           fill="none"
           stroke-width="3"
           stroke-linecap="butt"
           stroke-opacity="1"
           stroke="#000000"
           stroke-linejoin="round"
           d="m 646.202,752.034 5.947,8.039 5.947,8.039 5.947,8.04 5.947,8.039 5.947,8.04 5.947,8.039 5.947,8.04 5.947,8.039 5.947,8.039 5.948,8.04 5.947,8.039 5.947,8.04 5.947,8.039 5.947,8.04 5.947,8.039 5.947,8.04 5.947,8.039 5.947,8.039 5.947,8.04 5.947,8.039 5.947,8.04 1.719,2.323 5.262,8.504 5.262,8.503 5.262,8.504 5.262,8.504 5.262,8.503 5.262,8.504 3.326,5.375 9.998,0.204 9.998,0.203 9.998,0.204 9.998,0.204 9.998,0.203 9.998,0.204 9.998,0.204 9.997,0.203 9.998,0.204 9.998,0.204 9.998,0.203 9.998,0.204 9.998,0.203 9.998,0.204 9.998,0.204 9.998,0.203 9.998,0.204 9.998,0.204 9.998,0.203 9.998,0.204 9.998,0.204 6.75,0.137 1.196,-9.928 1.197,-9.928 1.196,-9.928 1.196,-9.929 0.223,-1.844 0.043,-10 0.028,-6.418 -8.827,-4.7 -8.827,-4.701 -8.826,-4.7 -8.827,-4.7 -8.826,-4.7 -8.827,-4.7 -8.827,-4.7 -6.273,-3.341 -6.009,-7.993 -6.009,-7.994 -6.009,-7.993 -6.009,-7.993 -6.009,-7.994 -6.009,-7.993 -6.008,-7.993 -6.009,-7.994 -6.009,-7.993 -6.009,-7.993 -6.009,-7.994 -6.009,-7.993 -6.009,-7.993 -6.009,-7.993 -6.009,-7.994 -6.009,-7.993 -6.009,-7.993 -6.008,-7.994 -6.009,-7.993 -6.009,-7.993 -6.009,-7.994 -6.009,-7.993 -6.009,-7.993 -6.009,-7.994 -6.009,-7.993 -6.009,-7.993 -6.009,-7.993 -6.009,-7.994 -6.008,-7.993 -6.009,-7.993 -6.009,-7.994 -4.952,-6.587"
           id="path223" />
        <path
           fill="none"
           stroke-width="3"
           stroke-linecap="butt"
           stroke-opacity="1"
           stroke="#000000"
           stroke-linejoin="round"
           d="m 470.827,897.884 0.303,9.995 0.304,9.996 0.116,3.833 -9.105,4.134 -9.106,4.135 -9.105,4.134 -9.106,4.134 -9.105,4.134 -9.106,4.134 -9.105,4.134 -8.107,3.681"
           id="path225" />
        <path
           fill="none"
           stroke-width="3"
           stroke-linecap="butt"
           stroke-opacity="1"
           stroke="#000000"
           stroke-linejoin="round"
           d="m 697.141,960.267 -9.02,-4.319 -9.019,-4.318 -9.019,-4.319 -9.019,-4.319 -9.02,-4.319 -9.019,-4.319 -9.019,-4.319 -9.013,-4.315 5.255,-8.509 5.255,-8.508 5.254,-8.508 5.255,-8.508 2.799,-4.532"
           id="path227" />
        <path
           fill="none"
           stroke-width="3"
           stroke-linecap="butt"
           stroke-opacity="1"
           stroke="#000000"
           stroke-linejoin="round"
           d="m 470.827,897.884 -9.101,4.144 -9.102,4.143 -9.101,4.144 -9.101,4.144 -0.515,0.235 -6.533,7.571 -6.533,7.57 -6.533,7.571 -6.534,7.571 -6.533,7.571 -1.536,1.78 0.349,9.994 0.243,6.962 9.998,0.203 9.998,0.204 9.998,0.204 9.998,0.203 9.998,0.204 9.998,0.204 9.998,0.203 9.997,0.204 9.998,0.203 9.998,0.204 9.998,0.204 9.998,0.203 9.998,0.204 9.998,0.204 9.998,0.203 9.998,0.204 9.998,0.204 9.998,0.203 9.998,0.204 9.998,0.204 9.997,0.203 9.998,0.204 9.998,0.204 9.998,0.203 9.998,0.204 9.998,0.203 9.998,0.204 9.998,0.204 9.998,0.203 7.183,0.147 4.455,-8.953 4.455,-8.953 4.455,-8.953 4.455,-8.953 2.554,-5.131 -0.151,-9.999 -0.095,-6.306 -9.019,-4.321 -9.018,-4.321 -9.018,-4.32 -9.019,-4.321 -9.018,-4.321 -9.018,-4.321 -9.019,-4.321 -5.608,-2.687 -0.193,-9.998 -0.193,-9.998 -0.193,-9.998 -0.193,-9.999 -0.193,-9.998 -0.193,-9.998 -0.194,-9.998 -0.193,-9.998 -0.193,-9.998 -0.193,-9.998 -0.193,-9.999 -0.193,-9.998 -0.193,-9.998 -0.099,-5.145"
           id="path229" />
        <path
           fill="none"
           stroke-width="3"
           stroke-linecap="butt"
           stroke-opacity="1"
           stroke="#000000"
           stroke-linejoin="round"
           d="m 697.42,977.336 -0.163,-9.999 -0.116,-7.07 4.528,-8.916 4.529,-8.915 4.528,-8.916 4.528,-8.916 2.294,-4.516"
           id="path231" />
        <path
           fill="none"
           stroke-width="3"
           stroke-linecap="butt"
           stroke-opacity="1"
           stroke="#000000"
           stroke-linejoin="round"
           d="m 1024.414,983.996 0.04,-10 0.029,-7.192 1.219,-9.925 1.219,-9.926 1.22,-9.925 1.219,-9.926 0.133,-1.081"
           id="path233" />
        <path
           fill="none"
           stroke-width="3"
           stroke-linecap="butt"
           stroke-opacity="1"
           stroke="#000000"
           stroke-linejoin="round"
           d="m 1454.424,767.3 -4.417,-8.973 -4.416,-8.972 -4.416,-8.972 -2.498,-5.075 -2.814,-5.189 -3.106,-4.892 -3.325,-4.657 -3.468,-4.484 -3.612,-4.31 -3.757,-4.136 -3.899,-3.962 -4.043,-3.787 -4.187,-3.612 -4.33,-3.437 -4.473,-3.261 -4.616,-3.086 -4.758,-2.911 -4.902,-2.735 -4.977,-2.621 -4.987,-2.57 -4.996,-2.517 -5.005,-2.467 -5.015,-2.414 -5.024,-2.363 -5.032,-2.311 -5.042,-2.259 -5.051,-2.208 -5.06,-2.155 -5.069,-2.104 -5.077,-2.052 -7.298,-2.915 -7.009,-2.853 -6.721,-2.79 -6.432,-2.727 -6.144,-2.663 -5.856,-2.601 -5.568,-2.538 -5.28,-2.475 -4.991,-2.412 -4.704,-2.349 -4.415,-2.287 -4.127,-2.223 -3.881,-2.195 -3.675,-2.199 -3.469,-2.205 -3.265,-2.211 -3.058,-2.215 -2.854,-2.221 -2.648,-2.227 -2.442,-2.232 -2.238,-2.237 -2.032,-2.243 -1.826,-2.248 -1.621,-2.254 -1.453,-2.297 -1.323,-2.378 -1.192,-2.46 -0.602,-1.442"
           id="path235" />
        <path
           fill="none"
           stroke-width="3"
           stroke-linecap="butt"
           stroke-opacity="1"
           stroke="#000000"
           stroke-linejoin="round"
           d="m 786.465,536.739 -7.412,6.714 -7.411,6.713 -7.411,6.714 -7.412,6.714 -7.411,6.713 -7.411,6.714 -7.412,6.713 -7.411,6.714 -7.411,6.713 -7.412,6.714 -7.411,6.714 -7.411,6.713 -7.412,6.714 -7.411,6.713 -7.412,6.714 -7.411,6.713 -7.411,6.714 -7.412,6.713 -8.532,7.73 -0.194,-9.998 -0.193,-9.998 -0.193,-9.998 -0.193,-9.999 -0.193,-9.998 -0.193,-9.998 -0.193,-9.998 -0.193,-9.998 -0.193,-9.998 -0.193,-9.998 -0.193,-9.999 -0.193,-9.998 -0.193,-9.998 -0.193,-9.998 -0.193,-9.998 -0.193,-9.998 -0.193,-9.998 -0.193,-9.999 -0.193,-9.998 -0.193,-9.998 -0.193,-9.998 -0.193,-9.998 -0.193,-9.998 -0.193,-9.998 -0.194,-9.998 -0.193,-9.999 -0.193,-9.998 -0.193,-9.998 -0.193,-9.998 -0.193,-9.998 -0.193,-9.998 -0.193,-9.998 -0.193,-9.999 -0.193,-9.998 -0.193,-9.998 -0.193,-9.998 -0.193,-9.998 -0.193,-9.998 -0.193,-9.998 -0.193,-9.999 -0.193,-9.998 -0.193,-9.998 -0.193,-9.998 -0.193,-9.998 -0.193,-9.998 -0.193,-9.998 -0.193,-9.998 -0.193,-9.999 -0.193,-9.998 -0.194,-9.998 -0.193,-9.998 -0.193,-9.998 -0.206,-10.681 -10,-0.007 -3.16,-0.002 -9.987,0.523 -9.986,0.522 -6.444,0.337"
           id="path237" />
      </g>
    </g>
    <path
       style="font-variation-settings:'wght' 700;fill:#f5b748;fill-opacity:1;stroke-width:0.190784;stroke-linecap:round;stroke-miterlimit:10"
       d="m 895.73134,979.27681 c -45.64509,-0.92058 -83.8936,-1.97336 -84.99668,-2.33955 -1.10307,-0.36619 -9.25909,-12.5212 -18.12449,-27.01112 -15.6383,-25.55984 -167.90414,-233.74639 -172.0362,-235.21771 -2.09224,-0.74502 -0.92618,130.29086 1.66449,187.04841 l 1.18941,26.05781 35.99008,17.29808 c 34.9705,16.80805 35.99009,17.46158 35.99009,23.06908 v 5.77101 l -35.77202,-0.12725 c -85.56976,-0.30438 -254.21278,-4.82609 -256.25755,-6.87086 -1.15555,-1.15556 -1.81368,-4.08808 -1.46251,-6.51675 0.53522,-3.70155 6.19261,-6.95845 34.97963,-20.13739 18.88762,-8.64691 34.98258,-15.98803 35.76657,-16.31361 1.04396,-0.43352 -13.18314,-505.94596 -18.08382,-642.54833 l -0.51219,-14.27673 -37.20289,-27.34649 c -30.67937,-22.55129 -37.29832,-28.2441 -37.74705,-32.46538 l -0.54415,-5.11889 109.29108,-32.00913 c 60.1101,-17.60502 111.13353,-31.98537 113.38539,-31.95634 3.93868,0.0508 4.1379,1.08617 5.24116,27.23954 1.11279,26.37852 10.79371,493.88245 10.72905,518.11871 -0.0261,9.8059 0.51089,11.94844 2.86928,11.44704 1.59582,-0.33925 40.2296,-34.40705 85.85285,-75.7062 70.11935,-63.47353 82.95138,-75.88239 82.95138,-80.2158 0,-4.40317 -3.87796,-7.94059 -27.48585,-25.0723 -26.06093,-18.91181 -27.5224,-20.31675 -28.19108,-27.10025 l -0.70521,-7.1544 h 95.61988 c 52.59096,0 106.10086,0.56355 118.9109,1.25234 l 23.291,1.25235 -0.57433,6.53487 c -0.56257,6.40094 -1.3172,6.93313 -36.82332,25.96943 -34.7634,18.6381 -39.30557,21.79505 -110.83121,77.03109 -41.02022,31.67806 -75.575,58.79271 -76.78841,60.25479 -1.77047,2.13327 18.34582,29.92648 101.85315,140.72311 l 104.05933,138.06482 34.73392,18.4796 c 34.52278,18.36726 34.73748,18.52128 35.32608,25.33968 l 0.5921,6.8601 -21.5784,-0.31682 c -11.86811,-0.17426 -58.92436,-1.07001 -104.56946,-1.99056 z"
       id="path1824" />
    <path
       style="font-variation-settings:'wght' 700;fill:#f5b748;fill-opacity:1;stroke-width:0.190784;stroke-linecap:round;stroke-miterlimit:10"
       d="m 1262.6702,210.97601 c -8.1859,-2.0607 -21.4708,-10.08364 -27.6248,-16.68298 -17.6975,-18.97836 -17.4401,-45.85636 0.5282,-55.14815 25.5746,-13.22514 65.1486,14.46392 64.9089,45.41528 -0.1496,19.31052 -17.6028,31.50339 -37.8123,26.41585 z"
       id="path1895" />
    <path
       style="font-variation-settings:'wght' 700;fill:#f5b748;fill-opacity:1;stroke-width:0.190784;stroke-linecap:round;stroke-miterlimit:10"
       d="m 1229.6035,995.55182 c -44.638,-4.57547 -97.3519,-19.36875 -131.9944,-37.04203 l -7.5643,-3.85901 1.3446,-60.46214 c 0.7395,-33.25418 1.4479,-60.575 1.5741,-60.71295 0.1261,-0.13794 3.0464,0.178 6.4895,0.70223 5.6708,0.86338 8.4165,4.14727 29.1688,34.88677 26.5417,39.31495 44.0405,57.63816 66.0673,69.18005 21.9224,11.48714 38.9522,15.21728 70.2095,15.3784 37.364,0.19261 57.2102,-5.5283 72.6136,-20.93179 11.2435,-11.24346 14.8921,-21.64697 14.9696,-42.68353 0.059,-15.96058 -0.5327,-19.26339 -4.9541,-27.66369 -10.0515,-19.09696 -28.8461,-31.53858 -84.537,-55.96152 -100.1091,-43.90236 -129.1649,-64.24824 -148.9459,-104.29713 -9.587,-19.40999 -12.8461,-37.2832 -11.6542,-63.91267 2.0201,-45.13214 17.8481,-78.31632 53.2909,-111.72687 51.9699,-48.99004 125.1287,-64.84421 214.719,-46.53156 22.8941,4.67966 38.1298,9.53655 61.1887,19.50598 l 17.8791,7.72994 -1.2024,36.41668 c -0.6613,20.02917 -1.728,49.50924 -2.3705,65.51125 l -1.1681,29.09458 -6.9233,-0.10032 c -6.8709,-0.0996 -7.0894,-0.3618 -28.8634,-34.64054 -41.3849,-65.15186 -66.6878,-83.62089 -114.3944,-83.49864 -29.0955,0.0746 -46.8375,6.14145 -62.447,21.35383 -14.403,14.03659 -20.7216,38.12709 -15.9847,60.94443 6.0067,28.93413 27.874,44.51125 110.7889,78.92018 65.4545,27.16301 90.6874,42.21143 110.0535,65.63365 20.9904,25.38661 28.4934,51.04478 26.7775,91.57066 -0.5587,13.19344 -2.4113,29.13924 -4.1171,35.43511 -12.2473,45.2054 -49.9334,85.17228 -99.5803,105.60684 -31.2249,12.85215 -57.5667,17.56284 -95.8653,17.14357 -15.3399,-0.16792 -30.8956,-0.61331 -34.5682,-0.98976 z"
       id="path1897" />
    <path
       style="font-variation-settings:'wght' 700;fill:#f5b748;fill-opacity:1;stroke-width:0.190784;stroke-linecap:round;stroke-miterlimit:10"
       d="m 997.46028,480.97543 c 0.56189,-1.46425 5.84142,-13.69828 11.73222,-27.18673 l 10.7107,-24.52448 93.5807,-112.56262 c 51.4693,-61.90944 93.8241,-112.81445 94.1217,-113.12225 0.2976,-0.3078 5.6846,4.58389 11.9711,10.87042 6.2865,6.28652 13.6899,11.99723 16.452,12.69046 2.762,0.69323 4.9873,1.81124 4.9451,2.48447 -0.042,0.67323 -43.1833,50.58944 -95.869,110.92492 l -95.7923,109.70085 -24.8019,16.58694 c -25.3895,16.9799 -28.8311,18.77867 -27.05032,14.13802 z"
       id="path1899" />
    <path
       style="font-variation-settings:'wght' 700;fill:#c07f0b;fill-opacity:1;stroke-width:0.190784;stroke-linecap:round;stroke-miterlimit:10"
       d="m 622.21626,662.97474 c -0.96558,-18.4621 -10.94485,-496.42161 -10.80118,-517.32529 l 0.048,-6.97784 10.49572,-0.65353 10.49573,-0.65353 0.0225,20.03233 c 0.0124,11.01778 2.14537,126.48986 4.73994,256.60461 2.59456,130.11476 4.72957,239.62827 4.74445,243.36334 0.0217,5.45736 -1.8018,8.82951 -9.2853,17.17057 l -9.31237,10.37951 z"
       id="path1901" />
    <path
       style="font-variation-settings:'wght' 700;fill:#c07f0b;fill-opacity:1;stroke-width:0.190784;stroke-linecap:round;stroke-miterlimit:10"
       d=""
       id="path6250" />
    <path
       style="font-variation-settings:'wght' 700;fill:#c07f0b;fill-opacity:1;stroke-width:0.190784;stroke-linecap:round;stroke-miterlimit:10"
       d="m 625.9986,848.55809 c -0.67315,-37.53812 -1.73182,-80.69979 -2.3526,-95.91482 l -1.1287,-27.6637 10.38302,13.75746 10.38302,13.75746 1.26042,43.30913 c 0.69323,23.82003 1.24153,54.11663 1.21845,67.32579 l -0.042,24.01665 -9.24887,14.83157 -9.24886,14.83158 z"
       id="path6252" />
    <path
       style="font-variation-settings:'wght' 700;fill:#c07f0b;fill-opacity:1;stroke-width:0.190784;stroke-linecap:round;stroke-miterlimit:10"
       d="m 662.49778,940.94983 c -17.57598,-8.51314 -31.95633,-16.26681 -31.95633,-17.23038 0,-3.07498 18.04734,-31.70198 20.03233,-31.77561 1.04931,-0.0389 15.76819,6.54908 32.70862,14.64001 l 30.80078,14.71078 -8.81422,17.74381 c -4.84782,9.7591 -9.26436,17.66417 -9.81453,17.56683 -0.55017,-0.0974 -15.38066,-7.14229 -32.95665,-15.65544 z"
       id="path6254" />
    <path
       style="font-variation-settings:'wght' 700;fill:#c07f0b;fill-opacity:1;stroke-width:0.190784;stroke-linecap:round;stroke-miterlimit:10"
       d="M 987.30771,943.9491 953.92049,925.96478 852.01736,790.34059 750.11422,654.71639 l 5.55717,-4.58777 c 12.56074,-10.36965 14.0717,-10.995 16.89676,-6.99318 1.40657,1.99246 43.8664,58.56847 94.35519,125.72448 l 91.7978,122.10182 33.84864,18.30688 c 18.61682,10.0688 33.72272,18.87656 33.56872,19.57283 -0.154,0.69624 -0.8876,8.13112 -1.6304,16.52192 -0.7427,8.3908 -1.9046,15.55165 -2.5818,15.91301 -0.6773,0.36137 -16.2556,-7.43592 -34.61859,-17.32728 z"
       id="path6256" />
    <path
       style="font-variation-settings:'wght' 700;fill:#c07f0b;fill-opacity:1;stroke-width:0.190784;stroke-linecap:round;stroke-miterlimit:10"
       d="m 785.35342,474.14794 -48.3731,-1.00338 7.69682,-6.18217 7.69682,-6.18217 111.74335,1.24813 c 61.45885,0.68647 111.74335,1.57939 111.74335,1.98427 0,0.40488 -1.30984,3.2691 -2.91075,6.36493 l -2.91076,5.62878 -68.15632,-0.42751 c -37.48597,-0.23513 -89.92421,-0.87903 -116.52941,-1.43088 z"
       id="path6258" />
    <path
       style="font-variation-settings:'wght' 700;fill:#c07f0b;fill-opacity:1;stroke-width:0.190784;stroke-linecap:round;stroke-miterlimit:10"
       d="m 1232.2083,946.41731 c -41.4144,-9.41429 -63.4117,-27.56358 -101.4234,-83.68124 l -21.551,-31.81637 0.5648,-12.64407 0.5648,-12.64407 18.9587,28.35628 c 31.1839,46.64111 53.5576,65.47481 88.9202,74.85093 27.2413,7.2228 62.3966,6.80507 85.4341,-1.01515 18.2439,-6.19303 33.0455,-20.64372 35.933,-35.08117 0.6279,-3.13947 1.8429,-6.1415 2.6999,-6.67118 2.3846,-1.47378 5.559,12.19479 5.559,23.93655 0,26.80277 -12.7719,44.11986 -39.6677,53.78471 -14.2334,5.11467 -58.3377,6.63803 -75.9924,2.62478 z"
       id="path6260" />
    <path
       style="font-variation-settings:'wght' 700;fill:#c07f0b;fill-opacity:1;stroke-width:0.190784;stroke-linecap:round;stroke-miterlimit:10"
       d="m 1421.3415,723.6477 c -14.2484,-11.62837 -48.4863,-29.14016 -94.2908,-48.2273 -68.8015,-28.67014 -91.2685,-42.459 -101.3366,-62.19396 -5.8596,-11.48584 -4.5418,-11.99802 6.8973,-2.68074 12.4716,10.15829 45.0618,26.82372 79.9832,40.90053 32.3796,13.05222 68.8037,30.45169 80.4188,38.4154 5.0873,3.48805 13.3696,10.18295 18.405,14.87755 8.974,8.3666 23.4674,26.53563 22.0755,27.6739 -0.388,0.3172 -5.8565,-3.62722 -12.1524,-8.76538 z"
       id="path6262" />
    <path
       style="font-variation-settings:'wght' 700;fill:#c07f0b;fill-opacity:1;stroke-width:0.190784;stroke-linecap:round;stroke-miterlimit:10"
       d=""
       id="path6264" />
    <path
       style="font-variation-settings:'wght' 700;fill:#c07f0b;fill-opacity:1;stroke-width:0.190784;stroke-linecap:round;stroke-miterlimit:10"
       d="m 1109.4095,576.19591 c 0,-1.87118 3.7249,-11.22823 8.2774,-20.79344 24.916,-52.35004 79.254,-90.05442 142.0184,-98.54448 21.6366,-2.92676 64.4004,-1.50042 90.0922,3.00493 38.1263,6.68587 89.6685,27.12981 89.6685,35.5665 0,0.91363 -2.3701,0.43551 -5.2669,-1.06248 -10.495,-5.42719 -46.0606,-16.30747 -67.3724,-20.61064 -19.1008,-3.85676 -27.2298,-4.39216 -65.6791,-4.32583 -41.8206,0.0721 -44.7655,0.32064 -62.7369,5.2937 -55.106,15.24898 -99.6141,49.60446 -124.2224,95.8863 -2.6283,4.94317 -4.7788,7.45661 -4.7788,5.58544 z"
       id="path6266" />
    <path
       style="font-variation-settings:'wght' 700;fill:#c07f0b;fill-opacity:1;stroke-width:0.101459;stroke-linecap:round;stroke-miterlimit:10"
       d="m 1091.7613,824.10179 c 0.2319,-2.92964 0.6981,-9.77813 1.0359,-15.21887 l 0.6143,-9.89227 h 5.9929 5.9928 v 4.40783 c 0,2.4243 -0.2976,9.2728 -0.6615,15.21887 l -0.6614,10.81104 h -6.3674 -6.3673 z"
       id="path6270" />
    <path
       style="font-variation-settings:'wght' 700;fill:#c07f0b;fill-opacity:1;stroke-width:0.101459;stroke-linecap:round;stroke-miterlimit:10"
       d="m 410.40218,945.53541 c 0.83704,-1.08103 6.84351,-8.12914 13.34772,-15.66248 l 11.82584,-13.69698 15.06083,-6.78376 c 8.28346,-3.73107 15.85983,-7.09002 16.83637,-7.46434 1.61376,-0.61857 1.77554,0.19325 1.77554,8.91011 v 9.59069 l -28.15491,12.78156 c -15.4852,7.02985 -29.06804,13.12111 -30.18409,13.53612 -1.87518,0.69731 -1.91368,0.60541 -0.5073,-1.21092 z"
       id="path6272" />
    <path
       style="font-variation-settings:'wght' 700;fill:#c07f0b;fill-opacity:1;stroke-width:0.0498463;stroke-linecap:round;stroke-miterlimit:10"
       d="m 974.24529,482.91953 c 0,-3.53731 0.22693,-4.53271 1.97925,-8.68155 l 1.97925,-4.68615 0.0146,4.01546 c 0.0126,3.47127 -0.22846,4.61966 -1.77891,8.47386 -0.98642,2.45213 -1.88366,4.55188 -1.99385,4.66611 -0.11019,0.11423 -0.20034,-1.59025 -0.20034,-3.78773 z"
       id="path6278" />
    <path
       style="font-variation-settings:'wght' 700;fill:#c07f0b;fill-opacity:1;stroke-width:0.0338143;stroke-linecap:round;stroke-miterlimit:10"
       d="m 642.97853,669.86727 c 0,-0.72971 8.59969,-8.61637 71.5172,-65.58747 37.75364,-34.1855 69.06144,-62.54462 69.57288,-63.02026 0.85725,-0.79725 0.92989,-0.81283 0.92989,-0.19943 0,0.45544 -22.20103,20.77419 -70.36031,64.39493 -38.69817,35.05126 -70.65267,63.93832 -71.00999,64.19347 -0.35732,0.25516 -0.64967,0.3536 -0.64967,0.21876 z"
       id="path6280" />
    <path
       style="font-variation-settings:'wght' 700;fill:#c07f0b;fill-opacity:1;stroke-width:0.166654;stroke-linecap:round;stroke-miterlimit:10"
       d="m 1247.4056,225.92436 c -28.0993,-8.5784 -46.6797,-39.71862 -35.8619,-60.10358 l 3.0954,-5.83289 2.7208,10.83251 c 3.5691,14.2092 7.003,20.40104 16.2029,29.21615 12.1882,11.67831 30.9991,18.75413 43.5902,16.39663 5.7346,-1.07372 5.9399,-0.96561 3.5834,1.88633 -6.013,7.2771 -22.2611,10.98431 -33.3308,7.60485 z"
       id="path6282" />
  </g>
  <path
     style="font-variation-settings:'wght' 700;fill:#c07f0b;stroke-width:0.076409;stroke-linecap:round;stroke-miterlimit:10;fill-opacity:1"
     d=""
     id="path1068" />
  <path
     style="font-variation-settings:'wght' 700;fill:#c07f0b;fill-opacity:1;stroke-width:0.0263143;stroke-linecap:round;stroke-miterlimit:10"
     d="m 360.91784,983.26581 -0.0168,-5.10039 8.48637,-16.69893 8.48637,-16.69894 0.191,4.3367 0.19101,4.3367 -8.66056,17.46262 -8.66055,17.46262 z"
     id="path1764" />
</svg>
